<svg width="1929" height="738" viewBox="0 0 1929 738" fill="none" xmlns="http://www.w3.org/2000/svg">
<g clip-path="url(#clip0_1_68)">
<path d="M1452.4 496.389C1452.05 496.389 1451.76 496.12 1451.73 495.745L1440.7 294.697C1440.7 294.375 1440.89 294.08 1441.21 294C1441.53 293.919 1441.85 294.08 1441.99 294.349L1537.49 492.901C1537.59 493.116 1537.57 493.357 1537.46 493.545C1537.35 493.733 1537.14 493.867 1536.9 493.867L1452.4 496.362V496.389ZM1442.25 297.997L1453.04 495.021L1535.86 492.579L1442.23 297.997H1442.25Z" fill="#3455F1" fill-opacity="0.1"/>
<path d="M1493.14 738C1492.81 738 1492.55 737.758 1492.47 737.437L1451.73 495.825C1451.7 495.638 1451.73 495.45 1451.86 495.289C1452 495.128 1452.16 495.047 1452.37 495.047L1536.87 492.552C1537.09 492.552 1537.27 492.633 1537.41 492.794C1537.54 492.955 1537.6 493.143 1537.57 493.357L1493.81 737.463C1493.75 737.785 1493.48 738.027 1493.14 738.027V738ZM1453.17 496.362L1493.14 733.439L1536.07 493.947L1453.15 496.389L1453.17 496.362Z" fill="#3455F1" fill-opacity="0.1"/>
<path d="M1493.14 738C1492.98 738 1492.79 737.946 1492.68 737.812L1347.26 596.51C1347.26 596.51 1347.05 596.215 1347.05 596.027C1347.05 595.839 1347.13 595.678 1347.26 595.544L1451.94 495.208C1452.13 495.047 1452.37 494.967 1452.61 495.047C1452.85 495.128 1453.01 495.316 1453.07 495.584L1493.81 737.195C1493.86 737.49 1493.73 737.758 1493.46 737.893C1493.35 737.946 1493.24 737.973 1493.14 737.973V738ZM1348.68 596.054L1492.15 735.424L1451.97 497.059L1348.7 596.027L1348.68 596.054Z" fill="#3455F1" fill-opacity="0.1"/>
<path d="M1493.14 738C1493.14 738 1492.9 737.973 1492.81 737.919C1492.57 737.785 1492.44 737.49 1492.49 737.222L1536.26 493.116C1536.28 492.901 1536.44 492.713 1536.63 492.633C1536.82 492.552 1537.06 492.552 1537.25 492.66L1680.85 576.684C1681.04 576.792 1681.17 576.979 1681.17 577.194C1681.17 577.409 1681.09 577.623 1680.93 577.757L1493.56 737.839C1493.56 737.839 1493.3 738 1493.14 738ZM1537.38 494.296L1494.13 735.612L1679.35 577.382L1537.38 494.323V494.296Z" fill="#3455F1" fill-opacity="0.1"/>
<path d="M824.994 589.267C824.994 589.267 824.806 589.267 824.699 589.213C824.405 589.079 824.244 588.757 824.324 588.435L849.03 492.579C849.11 492.257 849.405 492.043 849.753 492.07L889.608 496.04C889.849 496.04 890.063 496.201 890.143 496.416C890.25 496.63 890.223 496.899 890.089 497.086L825.529 588.971C825.395 589.159 825.181 589.267 824.994 589.267ZM850.208 493.465L826.546 585.216L888.35 497.274L850.208 493.465Z" fill="#3455F1" fill-opacity="0.1"/>
<path d="M1452.4 496.389C1452.4 496.389 1452.21 496.389 1452.13 496.335L1343.86 447.321C1343.67 447.24 1343.54 447.079 1343.49 446.892C1343.43 446.704 1343.49 446.489 1343.57 446.328L1440.81 294.322C1440.97 294.08 1441.26 293.946 1441.53 294.027C1441.8 294.107 1442.01 294.349 1442.04 294.644L1453.04 495.691C1453.04 495.933 1452.93 496.147 1452.75 496.281C1452.64 496.362 1452.5 496.389 1452.37 496.389H1452.4ZM1345.12 446.409L1451.67 494.645L1440.83 296.79L1345.12 446.409Z" fill="#3455F1" fill-opacity="0.1"/>
<path d="M1928.33 552.003C1928.33 552.003 1928.28 552.003 1928.22 552.003L1536.79 493.894C1536.52 493.867 1536.31 493.652 1536.23 493.384C1536.18 493.116 1536.28 492.848 1536.5 492.687L1778.84 320.345C1779 320.237 1779.19 320.211 1779.35 320.237C1779.54 320.264 1779.7 320.372 1779.78 320.533L1928.87 550.983C1929 551.198 1929 551.493 1928.87 551.708C1928.73 551.895 1928.52 552.003 1928.3 552.003H1928.33ZM1538.64 492.794L1926.97 550.447L1779.08 321.82L1538.67 492.794H1538.64Z" fill="#3455F1" fill-opacity="0.1"/>
<path d="M1680.5 577.918C1680.5 577.918 1680.26 577.892 1680.15 577.838L1536.55 493.813C1536.28 493.652 1536.15 493.304 1536.26 493.009C1536.36 492.713 1536.69 492.526 1536.98 492.579L1928.41 550.688C1928.73 550.742 1929 551.037 1928.97 551.359C1928.97 551.708 1928.71 551.976 1928.38 552.003L1680.55 577.918C1680.55 577.918 1680.5 577.918 1680.47 577.918H1680.5ZM1540.25 494.404L1680.66 576.577L1923 551.225L1540.25 494.404Z" fill="#3455F1" fill-opacity="0.1"/>
<path d="M1213.21 535.611C1212.95 535.611 1212.7 535.45 1212.6 535.182C1212.49 534.887 1212.6 534.565 1212.84 534.377L1343.75 446.113C1343.94 445.979 1344.18 445.953 1344.4 446.06L1452.67 495.074C1452.93 495.208 1453.09 495.477 1453.07 495.772C1453.04 496.067 1452.8 496.308 1452.5 496.335L1213.35 535.584C1213.35 535.584 1213.27 535.584 1213.24 535.584L1213.21 535.611ZM1344.18 447.455L1216.13 533.787L1450.07 495.396L1344.18 447.455Z" fill="#3455F1" fill-opacity="0.1"/>
<path d="M1347.69 596.698C1347.69 596.698 1347.5 596.698 1347.42 596.644L1212.95 535.557C1212.68 535.423 1212.52 535.155 1212.54 534.86C1212.57 534.565 1212.81 534.323 1213.11 534.296L1452.26 495.047C1452.56 494.994 1452.85 495.155 1452.96 495.423C1453.09 495.691 1453.04 496.013 1452.83 496.201L1348.14 596.537C1348.14 596.537 1347.85 596.725 1347.69 596.725V596.698ZM1215.52 535.235L1347.55 595.222L1450.36 496.711L1215.52 535.235Z" fill="#3455F1" fill-opacity="0.1"/>
<path d="M942.98 567.402C942.766 567.402 942.578 567.295 942.444 567.134L889.019 497.113C888.831 496.845 888.831 496.496 889.045 496.255C889.26 496.013 889.608 495.96 889.902 496.147L960.057 540.36C960.217 540.467 960.324 540.601 960.351 540.789C960.378 540.977 960.351 541.138 960.271 541.299L943.542 567.134C943.435 567.321 943.221 567.429 943.007 567.429L942.98 567.402ZM892.365 499.233L942.953 565.551L958.799 541.084L892.365 499.233Z" fill="#3455F1" fill-opacity="0.1"/>
<path d="M824.994 589.267C824.779 589.267 824.565 589.159 824.431 588.945C824.298 588.703 824.298 588.408 824.431 588.194L888.992 496.308C889.126 496.121 889.313 496.04 889.527 496.013C889.741 496.013 889.956 496.094 890.063 496.281L943.488 566.302C943.622 566.49 943.676 566.731 943.569 566.946C943.488 567.161 943.301 567.321 943.06 567.375L825.074 589.24C825.074 589.24 824.994 589.24 824.94 589.24L824.994 589.267ZM889.581 497.838L826.466 587.63L941.775 566.275L889.581 497.838Z" fill="#3455F1" fill-opacity="0.1"/>
<path d="M849.699 493.411C849.699 493.411 849.645 493.411 849.592 493.411L633.56 462.13C633.293 462.103 633.079 461.888 632.998 461.62C632.945 461.352 633.025 461.083 633.239 460.922L783.399 347.816C783.559 347.682 783.773 347.656 783.961 347.709C784.148 347.763 784.309 347.897 784.416 348.085L850.288 492.499C850.395 492.713 850.368 492.982 850.208 493.169C850.074 493.33 849.886 493.438 849.672 493.438L849.699 493.411ZM635.354 461.003L848.602 491.882L783.586 349.346L635.381 460.976L635.354 461.003Z" fill="#3455F1" fill-opacity="0.1"/>
<path d="M506.126 660.199C506.126 660.199 506.045 660.199 506.019 660.199C505.751 660.146 505.537 659.958 505.483 659.716L447.025 431.68C446.972 431.466 447.026 431.224 447.186 431.063C447.347 430.902 447.561 430.822 447.775 430.848L633.775 460.788C633.989 460.815 634.176 460.976 634.283 461.191C634.363 461.405 634.363 461.647 634.23 461.835L506.688 659.931C506.554 660.119 506.34 660.226 506.126 660.226V660.199ZM448.578 432.324L506.393 657.865L632.543 461.915L448.578 432.297V432.324Z" fill="#3455F1" fill-opacity="0.1"/>
<path d="M824.994 589.267C824.994 589.267 824.726 589.24 824.619 589.159L633.293 461.996C633.025 461.835 632.918 461.486 633.025 461.191C633.132 460.896 633.427 460.735 633.748 460.761L849.779 492.043C849.967 492.07 850.127 492.177 850.234 492.338C850.341 492.499 850.368 492.687 850.315 492.874L825.609 588.73C825.556 588.945 825.395 589.106 825.208 589.186C825.127 589.213 825.047 589.24 824.967 589.24L824.994 589.267ZM636.505 462.532L824.565 587.523L848.869 493.304L636.505 462.559V462.532Z" fill="#3455F1" fill-opacity="0.1"/>
<path d="M506.126 660.199C505.911 660.199 505.697 660.092 505.564 659.904C505.403 659.69 505.403 659.394 505.564 659.153L633.105 461.057C633.212 460.896 633.346 460.788 633.534 460.761C633.721 460.735 633.882 460.761 634.042 460.869L825.368 588.033C825.582 588.194 825.716 588.462 825.663 588.703C825.609 588.972 825.422 589.186 825.154 589.24L506.286 660.173C506.286 660.173 506.179 660.173 506.152 660.173L506.126 660.199ZM633.855 462.371L507.571 658.509L823.307 588.274L633.855 462.371Z" fill="#3455F1" fill-opacity="0.1"/>
<path d="M849.699 493.411C849.458 493.411 849.19 493.277 849.083 493.008L783.211 348.594C783.104 348.353 783.158 348.058 783.318 347.87C783.506 347.682 783.773 347.602 784.041 347.682L1002.19 426.529C1002.45 426.637 1002.62 426.878 1002.64 427.146C1002.64 427.415 1002.48 427.683 1002.24 427.79L849.967 493.357C849.967 493.357 849.779 493.411 849.699 493.411ZM785.085 349.507L850.02 491.855L1000.13 427.227L785.085 349.507Z" fill="#3455F1" fill-opacity="0.1"/>
<path d="M889.554 497.381H889.501L849.645 493.411C849.351 493.384 849.11 493.143 849.057 492.848C849.003 492.552 849.164 492.257 849.458 492.123L1001.73 426.556C1002.05 426.422 1002.43 426.556 1002.59 426.851C1002.75 427.173 1002.64 427.549 1002.35 427.736L889.929 497.274C889.929 497.274 889.715 497.381 889.581 497.381H889.554ZM852.349 492.338L889.393 496.04L993.889 431.412L852.349 492.365V492.338Z" fill="#3455F1" fill-opacity="0.1"/>
<path d="M959.709 541.594C959.709 541.594 959.468 541.567 959.361 541.486L889.206 497.274C889.019 497.14 888.885 496.925 888.885 496.711C888.885 496.469 889.019 496.255 889.206 496.147L1001.62 426.61C1001.87 426.449 1002.19 426.476 1002.4 426.663C1002.62 426.851 1002.7 427.146 1002.62 427.415L960.351 541.164C960.271 541.352 960.137 541.513 959.95 541.567C959.869 541.567 959.816 541.594 959.736 541.594H959.709ZM890.812 496.711L959.361 539.903L1000.63 428.756L890.812 496.711Z" fill="#3455F1" fill-opacity="0.1"/>
<path d="M959.709 541.594C959.495 541.594 959.281 541.486 959.173 541.325C959.04 541.138 959.013 540.923 959.093 540.708L1001.36 426.958C1001.41 426.771 1001.57 426.637 1001.73 426.556C1001.92 426.476 1002.11 426.502 1002.27 426.583L1213.53 534.377C1213.8 534.511 1213.96 534.833 1213.88 535.128C1213.8 535.423 1213.56 535.638 1213.24 535.638L959.736 541.594H959.709ZM1002.32 428.112L960.672 540.225L1210.54 534.35L1002.32 428.112Z" fill="#3455F1" fill-opacity="0.1"/>
<path d="M1213.21 535.611C1213.03 535.611 1212.87 535.531 1212.73 535.423L1086.77 406.784C1086.55 406.569 1086.53 406.274 1086.66 406.006C1086.8 405.738 1087.09 405.604 1087.36 405.657L1344.21 446.033C1344.48 446.087 1344.69 446.274 1344.77 446.543C1344.82 446.811 1344.72 447.079 1344.5 447.24L1213.59 535.504C1213.59 535.504 1213.35 535.611 1213.21 535.611ZM1089.15 407.267L1213.29 534.055L1342.31 447.052L1089.12 407.24L1089.15 407.267Z" fill="#3455F1" fill-opacity="0.1"/>
<path d="M1213.21 535.611C1213.21 535.611 1213 535.611 1212.92 535.531L1001.65 427.736C1001.41 427.602 1001.25 427.334 1001.28 427.066C1001.3 426.797 1001.52 426.556 1001.79 426.502L1087.09 405.63C1087.33 405.577 1087.57 405.63 1087.73 405.818L1213.7 534.457C1213.94 534.699 1213.96 535.048 1213.75 535.316C1213.61 535.504 1213.43 535.584 1213.21 535.584V535.611ZM1003.87 427.388L1209.87 532.499L1087.04 407.052L1003.85 427.388H1003.87Z" fill="#3455F1" fill-opacity="0.1"/>
<path d="M337.899 569.387C337.899 569.387 337.765 569.387 337.685 569.36L0.455029 460.091C0.187365 460.01 0.0267664 459.769 0 459.527C0 459.259 0.107066 458.991 0.347963 458.884L256.261 320.291C256.422 320.184 256.636 320.184 256.823 320.264C257.011 320.345 257.145 320.479 257.225 320.667L338.541 568.502C338.622 568.743 338.541 569.012 338.381 569.173C338.247 569.307 338.086 569.36 337.899 569.36V569.387ZM2.35544 459.313L336.828 567.697L256.181 321.847L2.35544 459.313Z" fill="#3455F1" fill-opacity="0.1"/>
<path d="M337.899 569.387C337.899 569.387 337.819 569.387 337.792 569.387C337.551 569.334 337.364 569.173 337.283 568.931L255.94 321.096C255.86 320.828 255.94 320.533 256.154 320.372C256.368 320.184 256.663 320.184 256.904 320.318L447.989 430.929C448.15 431.036 448.283 431.197 448.31 431.385C448.337 431.573 448.31 431.787 448.176 431.922L338.407 569.146C338.274 569.307 338.086 569.387 337.899 569.387ZM257.76 322.33L338.14 567.321L446.651 431.68L257.76 322.33Z" fill="#3455F1" fill-opacity="0.1"/>
<path d="M45.3155 577.838C45.0478 577.838 44.7802 577.677 44.6999 577.409L0.0535393 459.688C-0.0267599 459.447 0.0267729 459.179 0.187371 458.991C0.374736 458.803 0.6424 458.723 0.883297 458.803L338.113 568.073C338.434 568.18 338.622 568.475 338.568 568.797C338.515 569.119 338.247 569.36 337.926 569.36L45.3423 577.811L45.3155 577.838ZM1.79335 460.52L45.7705 576.497L333.991 568.18L1.79335 460.52Z" fill="#3455F1" fill-opacity="0.1"/>
<path d="M506.126 660.199C506.126 660.199 505.911 660.199 505.804 660.119L337.578 569.307C337.39 569.199 337.283 569.038 337.23 568.851C337.203 568.663 337.23 568.448 337.364 568.287L447.132 431.063C447.293 430.875 447.534 430.795 447.802 430.822C448.043 430.875 448.257 431.063 448.31 431.305L506.768 659.341C506.822 659.609 506.768 659.877 506.527 660.038C506.42 660.146 506.259 660.172 506.126 660.172V660.199ZM338.916 568.529L505.082 658.214L447.347 432.968L338.916 568.529Z" fill="#3455F1" fill-opacity="0.1"/>
<path d="M1536.9 493.894C1536.77 493.894 1536.6 493.84 1536.5 493.76C1536.26 493.572 1536.18 493.277 1536.28 492.982L1584.92 361.847C1585 361.633 1585.19 361.472 1585.4 361.418L1779.13 320.184C1779.43 320.13 1779.75 320.291 1779.88 320.559C1780.02 320.855 1779.91 321.203 1779.67 321.364L1537.33 493.706C1537.33 493.706 1537.09 493.84 1536.95 493.84L1536.9 493.894ZM1586.02 362.679L1538.26 491.426L1776.22 322.223L1586.02 362.706V362.679Z" fill="#3455F1" fill-opacity="0.1"/>
<path d="M1536.9 493.894C1536.63 493.894 1536.42 493.76 1536.28 493.518L1440.78 294.966C1440.65 294.697 1440.7 294.402 1440.92 294.215C1441.1 294.027 1441.42 293.973 1441.66 294.08L1585.8 361.525C1586.12 361.686 1586.26 362.035 1586.15 362.357L1537.51 493.491C1537.41 493.733 1537.19 493.921 1536.93 493.921C1536.93 493.921 1536.93 493.921 1536.9 493.921V493.894ZM1442.79 296.066L1536.79 491.506L1584.65 362.438L1442.79 296.066Z" fill="#3455F1" fill-opacity="0.1"/>
<ellipse cx="848.738" cy="606.759" rx="28.7384" ry="28.7591" fill="#CBE3FF"/>
</g>
<circle cx="1003.5" cy="669.5" r="12.5" fill="#CBE3FF"/>
<circle cx="1667" cy="239" r="9" fill="#CBE3FF"/>
<circle cx="377.5" cy="83.5" r="6.5" fill="#CBE3FF"/>
<circle cx="319" cy="182" r="15" fill="#CBE3FF"/>
<circle cx="1568" cy="174" r="15" fill="#CBE3FF"/>
<circle cx="1652.5" cy="28.5" r="28.5" fill="#CBE3FF"/>
<defs>
<clipPath id="clip0_1_68">
<rect width="1929" height="444" fill="white" transform="translate(0 294)"/>
</clipPath>
</defs>
</svg>
