<svg width="78" height="24" viewBox="0 0 78 24" fill="none" xmlns="http://www.w3.org/2000/svg">
<path d="M31.8292 19.8519L32.5678 21.4489C32.6376 21.5957 32.6972 21.6925 32.7437 21.738C32.7903 21.7835 32.8615 21.8144 32.9589 21.8305C33.1465 21.8599 33.2395 21.9553 33.2395 22.1182C33.2395 22.3105 33.1247 22.4485 32.8964 22.5322C32.6667 22.6158 32.293 22.6584 31.7725 22.6584C31.1836 22.6584 30.7474 22.6334 30.4639 22.5835C30.333 22.56 30.2298 22.5116 30.1542 22.4397C30.0771 22.3678 30.0393 22.2797 30.0393 22.1769C30.0393 22.0977 30.0596 22.0375 30.1004 21.9935C30.1411 21.9494 30.2152 21.9098 30.3243 21.8731C30.4464 21.8305 30.5075 21.7601 30.5075 21.6602C30.5075 21.4841 30.4013 21.3799 30.1905 21.3491C29.9637 21.3182 29.6453 21.3021 29.2338 21.3021C28.8877 21.3021 28.6812 21.3226 28.6129 21.3652C28.5707 21.3916 28.5344 21.4386 28.5039 21.5076C28.4733 21.5766 28.4573 21.6412 28.4573 21.7043C28.4573 21.7615 28.469 21.7997 28.4908 21.8173C28.5126 21.8349 28.5853 21.8628 28.7074 21.9024C28.8659 21.9494 28.9459 22.0448 28.9459 22.1857C28.9459 22.4984 28.5751 22.6555 27.8336 22.6555C27.4119 22.6555 27.1022 22.6261 26.9045 22.5689C26.7227 22.5131 26.6311 22.3927 26.6311 22.2063C26.6311 22.1256 26.6515 22.0624 26.6922 22.0169C26.7329 21.9729 26.8041 21.9318 26.9088 21.8951C27.0775 21.8349 27.2069 21.7498 27.2941 21.6412C27.3814 21.5325 27.505 21.2992 27.6664 20.941L28.2174 19.7227C28.421 19.2765 28.5562 18.9418 28.626 18.7201C28.6943 18.4985 28.7307 18.2812 28.7336 18.0684C28.7365 17.8424 28.7496 17.6853 28.7743 17.5972C28.799 17.5092 28.8543 17.4226 28.9401 17.3389C29.1204 17.1554 29.3486 17.0629 29.6278 17.0629C29.891 17.0629 30.1425 17.1671 30.381 17.3741C30.7139 17.6574 31.1981 18.4838 31.8335 19.8533L31.8292 19.8519ZM29.1116 20.3495H29.8764C30.0175 20.3495 30.0873 20.3186 30.0873 20.2555C30.0873 20.1689 29.9898 19.9561 29.795 19.617C29.7063 19.4614 29.6394 19.3587 29.5915 19.3058C29.5435 19.253 29.4955 19.2265 29.4431 19.2265C29.3501 19.2265 29.2716 19.3146 29.209 19.4908C29.1989 19.5142 29.1611 19.6082 29.0956 19.7711C28.9866 20.0397 28.9313 20.1997 28.9313 20.2526C28.9313 20.3186 28.9909 20.3509 29.1116 20.3509V20.3495Z" fill="white"/>
<path d="M37.7351 19.4233L39.2269 21.3109C39.3156 21.421 39.384 21.4959 39.4334 21.5355C39.4828 21.5751 39.5526 21.6089 39.6442 21.6382C39.7867 21.6852 39.8885 21.7395 39.9467 21.7997C40.0048 21.8599 40.0353 21.9406 40.0353 22.0404C40.0353 22.1344 40.0034 22.2239 39.9379 22.3061C39.8725 22.3883 39.7896 22.45 39.6878 22.4896C39.5323 22.5498 39.336 22.5924 39.1019 22.6173C38.8678 22.6423 38.5421 22.654 38.1262 22.654C37.6813 22.654 37.3483 22.6291 37.1259 22.5791C36.995 22.5483 36.8932 22.4969 36.8176 22.425C36.742 22.3546 36.7042 22.2738 36.7042 22.1843C36.7042 22.0713 36.7566 21.9788 36.8598 21.9083C36.9645 21.8408 37.0154 21.7821 37.0154 21.7351C37.0154 21.6045 36.8642 21.3373 36.5617 20.9351C36.5225 20.8852 36.489 20.8603 36.46 20.8603C36.4338 20.8603 36.4032 20.8808 36.3698 20.9234C36.2448 21.0761 36.1343 21.2287 36.0397 21.3814C35.9452 21.534 35.8973 21.6324 35.8973 21.6764C35.8973 21.719 35.9511 21.7821 36.0572 21.8658C36.1619 21.945 36.2128 22.0448 36.2128 22.1652C36.2128 22.3472 36.111 22.4691 35.9089 22.5322C35.6428 22.6158 35.3273 22.6584 34.9594 22.6584C34.5436 22.6584 34.2222 22.6232 33.9983 22.5527C33.9067 22.5234 33.8311 22.4705 33.7686 22.3913C33.7061 22.312 33.6755 22.2298 33.6755 22.1432C33.6755 22.0272 33.7133 21.9362 33.7904 21.8716C33.8675 21.8056 33.9765 21.7704 34.1205 21.766C34.292 21.7601 34.4374 21.7087 34.5581 21.6104C34.6773 21.512 34.8867 21.2728 35.1833 20.894L35.7882 20.1293C35.8216 20.0867 35.8391 20.0544 35.8391 20.0309C35.8391 20.0148 35.8216 19.9869 35.7882 19.9443L34.7878 18.6556C34.6323 18.4501 34.529 18.3253 34.4796 18.2813C34.4302 18.2372 34.3502 18.1976 34.2411 18.1624C34.0856 18.1125 33.9838 18.067 33.9373 18.0244C33.8486 17.9437 33.8049 17.8453 33.8049 17.7323C33.8049 17.496 33.9896 17.336 34.3589 17.2508C34.75 17.1613 35.1906 17.1173 35.6821 17.1173C36.1997 17.1173 36.5516 17.151 36.7362 17.22C36.8162 17.2494 36.8816 17.2993 36.931 17.3697C36.9805 17.4402 37.0052 17.518 37.0052 17.6016C37.0052 17.7338 36.9572 17.8336 36.8613 17.9011C36.8016 17.9437 36.7653 17.9701 36.7537 17.9833C36.742 17.9965 36.7362 18.0171 36.7362 18.0464C36.7362 18.1066 36.7842 18.2005 36.8802 18.3268C36.9761 18.453 37.0474 18.5161 37.0954 18.5161C37.1375 18.5161 37.2131 18.4486 37.3222 18.315C37.4312 18.1815 37.4865 18.0875 37.4865 18.0347C37.4865 18.0038 37.4792 17.9789 37.4647 17.9642C37.4501 17.9481 37.4007 17.9084 37.3149 17.8424C37.2364 17.7851 37.1971 17.6985 37.1971 17.5826C37.1971 17.4167 37.2989 17.2978 37.501 17.2244C37.7031 17.151 38.0346 17.1143 38.4926 17.1143C38.8285 17.1143 39.0873 17.1422 39.2691 17.1965C39.4988 17.2655 39.6122 17.402 39.6122 17.6061C39.6122 17.7426 39.5541 17.8453 39.4363 17.9128C39.3898 17.9393 39.2676 17.9583 39.0699 17.9715C38.939 17.9818 38.8067 18.0405 38.67 18.1448C38.5334 18.2504 38.3734 18.4192 38.1917 18.6526L37.7308 19.2354C37.6973 19.2794 37.6799 19.3132 37.6799 19.3337C37.6799 19.3499 37.6973 19.3778 37.7308 19.4203L37.7351 19.4233Z" fill="white"/>
<path d="M46.5652 17.085C46.9447 17.085 47.3126 17.1686 47.6659 17.3374C47.8331 17.4167 47.948 17.4563 48.0134 17.4563C48.0599 17.4563 48.1355 17.4446 48.2402 17.4211C48.2737 17.4138 48.3115 17.4094 48.3536 17.4094C48.4889 17.4094 48.6081 17.4725 48.7084 17.5987C48.9585 17.904 49.0836 18.2827 49.0836 18.7334C49.0836 19.0519 48.976 19.2838 48.7593 19.4306C48.6415 19.5099 48.5107 19.5495 48.3653 19.5495C48.233 19.5495 48.1239 19.5201 48.041 19.4629C47.9582 19.4056 47.8767 19.3029 47.7982 19.1561C47.6863 18.9491 47.5947 18.7994 47.5249 18.7084C47.4551 18.6174 47.3693 18.5352 47.2675 18.4618C47.0145 18.2827 46.7513 18.1932 46.4751 18.1932C46.1988 18.1932 45.9938 18.2915 45.8368 18.4868C45.6797 18.682 45.6012 18.9447 45.6012 19.2735C45.6012 19.7256 45.7146 20.1396 45.9415 20.5153C46.2483 21.0173 46.6888 21.2684 47.2617 21.2684C47.4725 21.2684 47.6819 21.2331 47.8884 21.1612C48.0948 21.0907 48.2562 20.9983 48.3711 20.8852C48.47 20.7913 48.5514 20.7429 48.6139 20.7429C48.7055 20.7429 48.7826 20.7854 48.848 20.8706C48.9134 20.9557 48.9454 21.0599 48.9454 21.1803C48.9454 21.3329 48.9004 21.5032 48.8088 21.6926C48.7172 21.8819 48.6081 22.0302 48.4801 22.1373C48.4249 22.1814 48.3129 22.221 48.1399 22.2562C48.041 22.2753 47.9102 22.3237 47.7459 22.4015C47.3606 22.588 46.9593 22.6819 46.5434 22.6819C46.1276 22.6819 45.6754 22.5835 45.2435 22.3869C44.7405 22.1579 44.3435 21.8071 44.0527 21.3344C43.7663 20.875 43.6238 20.3935 43.6238 19.8915C43.6238 19.3088 43.8041 18.7759 44.1632 18.2945C44.4758 17.8761 44.8829 17.5576 45.386 17.336C45.7684 17.1672 46.1625 17.0835 46.5696 17.0835L46.5652 17.085Z" fill="white"/>
<path d="M52.0075 18.6468C52.4611 18.6468 52.845 18.7628 53.159 18.9932C53.3262 19.1165 53.4426 19.2574 53.508 19.4174C53.5749 19.5759 53.6069 19.7947 53.6069 20.0735L53.5996 20.6607C53.5996 21.0688 53.6287 21.3315 53.6854 21.4533C53.7145 21.5106 53.7421 21.5473 53.7668 21.5634C53.7915 21.5796 53.8468 21.5942 53.9311 21.6075C54.0154 21.6207 54.0562 21.6764 54.0562 21.7733C54.0562 21.8996 54.0067 22.0302 53.9064 22.1682C53.8061 22.3062 53.6767 22.4192 53.5182 22.5117C53.3233 22.6276 53.1183 22.6849 52.9046 22.6849C52.6312 22.6849 52.4146 22.5909 52.2561 22.4016C52.2008 22.334 52.15 22.2988 52.1034 22.2988C52.0511 22.2988 51.9827 22.3311 51.897 22.3972C51.6367 22.5894 51.3415 22.6849 51.01 22.6849C50.6785 22.6849 50.3935 22.6115 50.1827 22.4647C50.0446 22.3678 49.9355 22.2401 49.8541 22.0845C49.7741 21.9274 49.7334 21.7645 49.7334 21.5942C49.7334 21.3212 49.8425 21.079 50.062 20.8691C50.4037 20.5374 50.9141 20.3715 51.5931 20.3686C51.7443 20.3686 51.8388 20.3539 51.8781 20.3231C51.9173 20.2923 51.9362 20.2233 51.9362 20.1117C51.9362 19.8328 51.9071 19.6317 51.8504 19.507C51.7937 19.3822 51.6992 19.3191 51.5698 19.3191C51.4913 19.3191 51.4215 19.3426 51.3604 19.3895C51.2994 19.4365 51.2238 19.5231 51.1322 19.6493C50.901 19.9825 50.6581 20.1499 50.4052 20.1499C50.2772 20.1499 50.174 20.1117 50.0925 20.0354C50.0126 19.9591 49.9719 19.8592 49.9719 19.7359C49.9719 19.6126 50.0213 19.4835 50.1216 19.3572C50.2219 19.231 50.3572 19.1209 50.5302 19.0255C51.0013 18.773 51.4927 18.6468 52.006 18.6468H52.0075ZM51.7457 20.9293C51.6309 20.9293 51.532 20.9763 51.4477 21.0717C51.3633 21.1671 51.3212 21.2787 51.3212 21.4108C51.3212 21.5429 51.3517 21.6383 51.4113 21.7161C51.4709 21.7939 51.5509 21.832 51.6498 21.832C51.8577 21.832 51.9624 21.6544 51.9624 21.3007C51.9624 21.1568 51.9478 21.0585 51.9173 21.0086C51.8868 20.9587 51.8315 20.9322 51.7472 20.9293H51.7457Z" fill="white"/>
<path d="M56.644 18.6776C56.7924 18.6776 56.8665 18.7847 56.8665 18.9975V19.0651C56.8636 19.1076 56.8621 19.1414 56.8621 19.1678C56.8621 19.3102 56.9043 19.3807 56.9872 19.3807C57.0308 19.3807 57.1006 19.3249 57.1937 19.2119C57.3347 19.0489 57.5106 18.9197 57.7244 18.8229C57.9381 18.726 58.1562 18.679 58.3801 18.679C58.8149 18.679 59.1173 18.839 59.286 19.1605C59.3514 19.2794 59.4037 19.3381 59.4459 19.3381C59.475 19.3381 59.5419 19.2852 59.6495 19.181C59.9883 18.8478 60.3721 18.6805 60.801 18.6805C61.1369 18.6805 61.4117 18.7744 61.6255 18.9608C61.8494 19.1561 61.9613 19.4467 61.9613 19.8357C61.9613 19.9194 61.9584 20.0617 61.9541 20.2614C61.9483 20.3304 61.9468 20.5359 61.9468 20.8808C61.9468 21.101 61.9468 21.2566 61.9424 21.3461C61.9395 21.4019 61.9381 21.4401 61.9381 21.465C61.9381 21.6338 61.9904 21.7806 62.0937 21.9068C62.1562 21.9832 62.194 22.0331 62.2085 22.058C62.2231 22.083 62.2303 22.1167 62.2303 22.1578C62.2303 22.494 61.8392 22.6628 61.0555 22.6628C60.7094 22.6628 60.4303 22.6202 60.218 22.5365C60.0057 22.4529 59.8996 22.3428 59.8996 22.2048C59.8996 22.152 59.9068 22.1123 59.9214 22.0844C59.9359 22.0566 59.9853 21.9832 60.0711 21.8657C60.1511 21.7586 60.1918 21.399 60.1918 20.7898C60.1918 20.4346 60.1671 20.188 60.1177 20.0485C60.061 19.8827 59.9461 19.8005 59.7745 19.8005C59.6887 19.8005 59.6117 19.8269 59.5462 19.8812C59.4794 19.9355 59.4357 20.003 59.4154 20.0838C59.3921 20.1777 59.379 20.4302 59.3761 20.8412C59.3834 21.283 59.3979 21.5501 59.4168 21.6456C59.4357 21.7395 59.5026 21.8716 59.6146 22.0404C59.6407 22.08 59.6538 22.1299 59.6538 22.1901C59.6538 22.5028 59.2496 22.6598 58.4397 22.6598C57.9526 22.6598 57.6255 22.6231 57.4554 22.5498C57.3202 22.4925 57.2518 22.3898 57.2518 22.243C57.2518 22.1769 57.2605 22.1314 57.2765 22.105C57.294 22.0786 57.3507 22.0184 57.451 21.923C57.5077 21.8672 57.5455 21.8158 57.563 21.7674C57.5804 21.7189 57.5921 21.6294 57.5993 21.5017C57.6168 21.2125 57.627 20.9204 57.627 20.6269C57.627 20.1116 57.4975 19.8548 57.2358 19.8548C57.041 19.8548 56.9247 19.9649 56.8883 20.1865C56.8578 20.3935 56.8418 20.6914 56.8418 21.0775C56.8418 21.3667 56.8476 21.556 56.8592 21.6456C56.8709 21.7351 56.9029 21.8276 56.9552 21.9259C57.0177 22.0389 57.0483 22.1314 57.0483 22.2019C57.0483 22.3721 56.9305 22.491 56.6935 22.5571C56.4361 22.6275 56.1526 22.6642 55.8429 22.6642C55.4416 22.6642 55.1479 22.632 54.9603 22.5674C54.7727 22.5028 54.6797 22.4015 54.6797 22.2621C54.6797 22.2092 54.6913 22.1652 54.716 22.1285C54.7408 22.0918 54.7975 22.0345 54.8862 21.9553C55.0025 21.8481 55.0708 21.6984 55.0897 21.509C55.1188 21.1832 55.1319 20.8456 55.1319 20.4962C55.1319 20.2467 55.1202 20.072 55.0955 19.9737C55.0708 19.8753 55.0185 19.7961 54.937 19.7359C54.8585 19.6757 54.8091 19.6302 54.7873 19.5979C54.7655 19.5656 54.7538 19.523 54.7538 19.4673C54.7538 19.2911 54.8905 19.1517 55.1639 19.0489C55.8225 18.8097 56.3154 18.6893 56.644 18.6864V18.6776Z" fill="white"/>
<path d="M64.8155 18.6703C64.974 18.6703 65.0729 18.6835 65.1121 18.7114C65.1514 18.7393 65.1703 18.8083 65.1703 18.9183C65.1703 19.0152 65.2008 19.0637 65.2633 19.0637C65.2895 19.0637 65.3767 19.0138 65.525 18.9139C65.637 18.8376 65.7795 18.7745 65.9525 18.7231C66.1255 18.6717 66.2826 18.6468 66.4236 18.6468C66.7537 18.6468 67.0503 18.7628 67.3106 18.9932C67.5083 19.1693 67.6624 19.391 67.7715 19.6596C67.8863 19.9414 67.9431 20.2365 67.9431 20.5462C67.9431 21.2082 67.722 21.7542 67.2786 22.1829C66.9383 22.5161 66.5501 22.6834 66.1154 22.6834C65.8944 22.6834 65.6661 22.6305 65.432 22.5263C65.3855 22.5058 65.3477 22.4955 65.3186 22.4955C65.2401 22.4955 65.2008 22.5748 65.2008 22.7318C65.2008 22.9388 65.2691 23.0885 65.4073 23.181C65.5352 23.2676 65.6108 23.3263 65.6356 23.3571C65.6603 23.388 65.6719 23.4379 65.6719 23.5083C65.6719 23.6654 65.5847 23.7872 65.4102 23.8724C65.2357 23.9575 64.99 24.0001 64.6715 24.0001C64.1074 24.0001 63.6116 23.8856 63.187 23.6566C62.9704 23.5406 62.8628 23.3982 62.8628 23.2265C62.8628 23.1472 62.8788 23.0885 62.9107 23.0474C62.9427 23.0063 63.0067 22.9638 63.0998 22.9197C63.235 22.8566 63.3179 22.7421 63.3484 22.5762C63.3789 22.4104 63.4007 21.9348 63.4167 21.1495C63.3993 20.5036 63.3746 20.1396 63.3469 20.0618C63.3368 20.0354 63.3222 20.0178 63.3019 20.0104C63.283 20.0031 63.2175 19.9884 63.1085 19.9679C63.0256 19.9517 62.9573 19.9135 62.9049 19.8519C62.8526 19.7902 62.8264 19.7154 62.8264 19.6288C62.8264 19.5231 62.8628 19.4306 62.9355 19.3514C63.0082 19.2721 63.1274 19.1928 63.2902 19.1165C63.9286 18.8244 64.4345 18.6761 64.8097 18.6703H64.8155ZM65.2023 20.1601L65.1441 21.2449C65.1412 21.2889 65.1397 21.333 65.1397 21.3755C65.1397 21.4577 65.1746 21.5223 65.2459 21.5722C65.3157 21.6221 65.4102 21.6471 65.5265 21.6471C65.8856 21.6471 66.0659 21.3491 66.0659 20.7517C66.0659 20.3656 65.9903 20.0941 65.8391 19.9356C65.7461 19.8387 65.6341 19.7902 65.5032 19.7902C65.3186 19.7902 65.2183 19.9135 65.2023 20.1601Z" fill="white"/>
<path d="M70.8043 18.8743V21.0115C70.8043 21.4694 70.9541 21.6969 71.2536 21.6969C71.3292 21.6969 71.4034 21.6749 71.4761 21.6324C71.5488 21.5883 71.5997 21.5355 71.6287 21.4724C71.6855 21.3461 71.7145 21.0643 71.7145 20.6283C71.7145 20.1924 71.7 19.9032 71.6724 19.7447C71.6622 19.6786 71.6433 19.6317 71.6171 19.6008C71.5909 19.57 71.5415 19.5363 71.4688 19.4966C71.3205 19.4174 71.2463 19.3175 71.2463 19.1972C71.2463 19.0343 71.3743 18.9212 71.6287 18.8581C72.1129 18.7377 72.5913 18.6761 73.0624 18.6761C73.3256 18.6761 73.4564 18.817 73.4564 19.0974C73.4564 19.1267 73.4564 19.1854 73.4521 19.275C73.4462 19.4012 73.4433 19.5553 73.4404 19.7359V21.4738C73.4404 21.5634 73.516 21.6441 73.6673 21.719C73.7952 21.7821 73.8592 21.8746 73.8592 21.9949C73.8592 22.2312 73.5815 22.4147 73.0275 22.5424C72.7018 22.6188 72.3877 22.6569 72.0824 22.6569C71.9573 22.6569 71.8716 22.6422 71.8265 22.6144C71.7814 22.585 71.7538 22.5292 71.7465 22.4441C71.7334 22.2811 71.684 22.1989 71.5982 22.1989C71.5677 22.1989 71.5386 22.2063 71.5124 22.221C71.4863 22.2356 71.4077 22.2885 71.274 22.381C71.0108 22.563 70.7287 22.6525 70.4263 22.6525C69.9261 22.6525 69.5742 22.5072 69.3678 22.2151C69.1933 21.97 69.106 21.559 69.106 20.9806C69.106 20.7649 69.106 20.5814 69.1104 20.4287V20.2467C69.1104 20.0207 69.0901 19.8548 69.0493 19.7476C69.0086 19.6419 68.9359 19.5583 68.8283 19.4966C68.7266 19.4438 68.6626 19.4027 68.635 19.3704C68.6073 19.3396 68.5942 19.2955 68.5942 19.2398C68.5942 19.0401 68.744 18.908 69.0435 18.842C69.5539 18.7289 70.0642 18.6717 70.5746 18.6717C70.7287 18.6717 70.8043 18.7377 70.8043 18.8684V18.8743Z" fill="white"/>
<path d="M76.0866 18.6497C76.2174 18.6497 76.4283 18.6791 76.7234 18.7363C76.783 18.7466 76.8325 18.7525 76.8717 18.7525C76.9154 18.7525 77.0026 18.729 77.1291 18.682C77.1887 18.6585 77.2396 18.6468 77.2818 18.6468C77.401 18.6468 77.5231 18.7246 77.6453 18.8787C77.7441 19.002 77.8241 19.1371 77.8866 19.2853C77.9492 19.4321 77.9797 19.5598 77.9797 19.6684C77.9797 19.777 77.9433 19.8607 77.8706 19.9312C77.7979 20.0002 77.7063 20.0354 77.5973 20.0354C77.5057 20.0354 77.4243 20.0134 77.353 19.9679C77.2818 19.9238 77.1654 19.824 77.007 19.6728C76.8397 19.5099 76.7031 19.4277 76.5926 19.4277C76.5199 19.4277 76.4559 19.4541 76.4035 19.5084C76.3512 19.5627 76.3236 19.6258 76.3236 19.6992C76.3236 19.8284 76.4457 19.9488 76.6914 20.0618C77.132 20.2614 77.4679 20.4801 77.7034 20.7165C77.9012 20.9161 78 21.1612 78 21.4504C78 21.8159 77.8416 22.1212 77.5231 22.3649C77.2498 22.5777 76.9154 22.6834 76.5199 22.6834C76.4181 22.6834 76.2334 22.6658 75.9659 22.632C75.7129 22.6027 75.5719 22.588 75.5399 22.588C75.5064 22.588 75.4672 22.5924 75.4221 22.5997C75.3465 22.61 75.2912 22.6159 75.2578 22.6159C75.1357 22.6159 75.0397 22.585 74.9684 22.5219C74.8623 22.425 74.7634 22.2709 74.6718 22.0625C74.5802 21.8541 74.5352 21.6735 74.5352 21.5238C74.5352 21.2816 74.6282 21.1612 74.8158 21.1612C74.8885 21.1612 74.9554 21.1862 75.0164 21.2346C75.0775 21.2831 75.2055 21.4122 75.4003 21.6236C75.5064 21.7396 75.5951 21.8188 75.6664 21.8614C75.7362 21.904 75.8118 21.926 75.8932 21.926C75.979 21.926 76.0473 21.9025 76.0997 21.857C76.152 21.8115 76.1782 21.7498 76.1782 21.6735C76.1782 21.5546 76.0778 21.4475 75.8772 21.3506C75.4584 21.1436 75.156 20.9293 74.9699 20.7077C74.7838 20.4875 74.6907 20.2321 74.6907 19.9429C74.6907 19.6303 74.7852 19.3602 74.9757 19.1341C75.2462 18.8112 75.6155 18.6497 76.0851 18.6497H76.0866Z" fill="white"/>
<path d="M17.1162 18.357H16.3979C15.117 19.2906 13.5438 19.8395 11.847 19.8395C7.54323 19.8395 4.04205 16.3064 4.04205 11.9616C4.04205 7.6167 7.54323 4.08211 11.847 4.08211C13.1149 4.08211 14.3129 4.38889 15.3729 4.93199C15.4194 4.95841 15.4659 4.98337 15.5139 5.00685C15.5212 5.01126 15.5285 5.01419 15.5372 5.0186C15.5445 5.023 15.5517 5.0274 15.5605 5.03181V5.02887C16.0039 5.24611 16.4546 5.35914 16.8661 5.36354C17.0769 5.36648 17.2761 5.34006 17.4593 5.28575C17.7356 5.20355 17.9741 5.05529 18.1543 4.83952C18.8464 4.01018 18.4175 2.49682 17.1976 1.45905C16.9156 1.21832 16.6146 1.02456 16.3107 0.877777C16.1231 0.788238 15.9327 0.716313 15.7466 0.663471C15.6855 0.641453 15.623 0.620903 15.5605 0.600353C14.3929 0.209903 13.1439 0 11.847 0C5.30411 0 0 5.3562 0 11.9616C0 18.5669 5.30411 23.9216 11.847 23.9216C16.0592 23.9216 19.7595 21.7022 21.8591 18.357H17.1162Z" fill="white"/>
<path d="M23.6274 10.6801C23.575 10.661 23.5183 10.6507 23.4587 10.6507C23.1825 10.6507 22.9571 10.8768 22.9571 11.1557C22.9571 11.3685 23.0865 11.549 23.2697 11.6254C22.8713 12.4165 21.602 13.72 20.526 13.4954C20.4824 13.4866 20.4402 13.4749 20.3966 13.4617C20.2599 13.4176 20.1247 13.3472 19.9909 13.2474C19.8586 13.1519 19.7292 13.0257 19.5998 12.8686C19.1723 12.3476 18.7594 11.4742 18.3668 10.1105C18.707 10.0783 18.9731 9.78909 18.9731 9.43827C18.9731 9.06544 18.6736 8.76453 18.3057 8.76453C17.9379 8.76453 17.6369 9.06544 17.6369 9.43827C17.6369 9.78909 17.903 10.0783 18.2432 10.1105C17.5729 12.44 16.8445 13.3369 16.084 13.4954C15.9124 13.5307 15.738 13.5277 15.5606 13.494C14.8467 13.3604 14.124 12.7277 13.6733 12.1406C13.5337 11.96 13.4203 11.7824 13.3403 11.6254C13.5235 11.549 13.6529 11.3685 13.6529 11.1557C13.6529 10.8768 13.4275 10.6507 13.1513 10.6507C12.875 10.6507 12.6497 10.8768 12.6497 11.1557C12.6497 11.4346 12.875 11.6621 13.1513 11.6621C13.1833 11.6621 13.2153 11.6591 13.2458 11.6533C13.4014 12.2433 13.5366 12.7409 13.6733 13.24C13.8928 14.0444 14.1167 14.8591 14.4323 16.0877H22.1792C22.3915 15.2583 22.5616 14.6169 22.7186 14.04C22.9382 13.2327 23.1287 12.5516 23.3642 11.6533C23.3947 11.6591 23.4267 11.6621 23.4587 11.6621C23.5416 11.6621 23.6201 11.6415 23.6884 11.6048C23.8498 11.5212 23.9603 11.3524 23.9603 11.1557C23.9603 10.937 23.8208 10.7505 23.6274 10.6801Z" fill="white"/>
<path d="M14.4321 16.6279V17.7288C14.4321 17.9504 14.6095 18.1295 14.8276 18.1295H21.7821C21.8984 18.1295 22.0046 18.0781 22.0787 17.9959C22.0787 17.9959 22.0792 17.9949 22.0802 17.993C22.1151 17.9533 22.1427 17.9064 22.1587 17.855C22.1602 17.8521 22.1602 17.8506 22.1616 17.8491C22.1732 17.811 22.1791 17.7699 22.1791 17.7288V16.6279H14.4321Z" fill="white"/>
</svg>
