<svg width="24" height="24" viewBox="0 0 24 24" fill="none" xmlns="http://www.w3.org/2000/svg">
<path d="M17.0538 18.3541H16.3382C15.0619 19.2875 13.4944 19.8364 11.8038 19.8364C7.51574 19.8364 4.02732 16.3038 4.02732 11.9597C4.02732 7.61551 7.51574 4.08146 11.8038 4.08146C13.0671 4.08146 14.2608 4.3882 15.3169 4.93122C15.3632 4.95764 15.4096 4.98259 15.4574 5.00607C15.4646 5.01047 15.4719 5.01341 15.4806 5.01781C15.4878 5.02221 15.495 5.02662 15.5037 5.03102V5.02808C15.9456 5.24529 16.3947 5.3583 16.8047 5.3627C17.0147 5.36564 17.2132 5.33922 17.3957 5.28492C17.671 5.20273 17.9085 5.0545 18.0882 4.83876C18.7778 4.00955 18.3504 2.49643 17.135 1.45882C16.8539 1.21813 16.554 1.0244 16.2513 0.87764C16.0644 0.788115 15.8746 0.716201 15.6892 0.663366C15.6283 0.641352 15.566 0.620805 15.5037 0.600259C14.3405 0.20987 13.096 0 11.8038 0C5.28477 0 0 5.35536 0 11.9597C0 18.564 5.28477 23.9179 11.8038 23.9179C16.0006 23.9179 19.6875 21.6988 21.7794 18.3541H17.0538Z" fill="white"/>
<path d="M23.541 10.6784C23.4888 10.6594 23.4323 10.6491 23.373 10.6491C23.0977 10.6491 22.8732 10.8751 22.8732 11.1539C22.8732 11.3668 23.0021 11.5473 23.1846 11.6236C22.7877 12.4146 21.523 13.7179 20.451 13.4933C20.4075 13.4845 20.3655 13.4728 20.322 13.4596C20.1859 13.4156 20.0511 13.3451 19.9179 13.2453C19.786 13.1499 19.6571 13.0237 19.5282 12.8667C19.1023 12.3457 18.6908 11.4724 18.2997 10.109C18.6387 10.0767 18.9038 9.78759 18.9038 9.43682C18.9038 9.06405 18.6054 8.76318 18.2388 8.76318C17.8723 8.76318 17.5724 9.06405 17.5724 9.43682C17.5724 9.78759 17.8376 10.0767 18.1765 10.109C17.5087 12.4381 16.7829 13.3348 16.0253 13.4933C15.8543 13.5286 15.6805 13.5256 15.5037 13.4919C14.7924 13.3583 14.0724 12.7258 13.6234 12.1387C13.4843 11.9582 13.3713 11.7806 13.2916 11.6236C13.4741 11.5473 13.6031 11.3668 13.6031 11.1539C13.6031 10.8751 13.3785 10.6491 13.1033 10.6491C12.828 10.6491 12.6035 10.8751 12.6035 11.1539C12.6035 11.4328 12.828 11.6603 13.1033 11.6603C13.1351 11.6603 13.167 11.6573 13.1974 11.6515C13.3525 12.2415 13.4872 12.739 13.6234 13.238C13.8421 14.0422 14.0652 14.8568 14.3796 16.0852H22.0981C22.3096 15.256 22.4791 14.6146 22.6356 14.0378C22.8543 13.2306 23.0441 12.5497 23.2788 11.6515C23.3092 11.6573 23.3411 11.6603 23.373 11.6603C23.4555 11.6603 23.5338 11.6397 23.6018 11.603C23.7626 11.5194 23.8727 11.3506 23.8727 11.1539C23.8727 10.9353 23.7337 10.7489 23.541 10.6784Z" fill="white"/>
<path d="M14.3796 16.6252V17.726C14.3796 17.9476 14.5563 18.1266 14.7736 18.1266H21.7026C21.8185 18.1266 21.9243 18.0753 21.9982 17.9931C21.9982 17.9931 21.9986 17.9921 21.9996 17.9901C22.0344 17.9505 22.0619 17.9035 22.0778 17.8522C22.0793 17.8492 22.0793 17.8478 22.0807 17.8463C22.0923 17.8081 22.0981 17.7671 22.0981 17.726V16.6252H14.3796Z" fill="white"/>
</svg>
