<svg width="16" height="16" viewBox="0 0 16 16" fill="none" xmlns="http://www.w3.org/2000/svg">
<path fill-rule="evenodd" clip-rule="evenodd" d="M3.33329 1.83325C3.24124 1.83325 3.16663 1.90787 3.16663 1.99992V13.9999C3.16663 14.092 3.24124 14.1666 3.33329 14.1666H12.6666C12.7587 14.1666 12.8333 14.092 12.8333 13.9999V1.99992C12.8333 1.90787 12.7587 1.83325 12.6666 1.83325H3.33329ZM2.16663 1.99992C2.16663 1.35559 2.68896 0.833252 3.33329 0.833252H12.6666C13.311 0.833252 13.8333 1.35559 13.8333 1.99992V13.9999C13.8333 14.6443 13.311 15.1666 12.6666 15.1666H3.33329C2.68897 15.1666 2.16663 14.6443 2.16663 13.9999V1.99992Z" fill="#828282"/>
<path fill-rule="evenodd" clip-rule="evenodd" d="M6.5 1.33325C6.5 1.05711 6.72386 0.833252 7 0.833252H11C11.2761 0.833252 11.5 1.05711 11.5 1.33325V7.33325C11.5 7.53751 11.3758 7.72122 11.1862 7.79729C10.9966 7.87335 10.7799 7.82647 10.6387 7.67886L9 5.96571L7.36132 7.67886C7.22013 7.82647 7.00336 7.87335 6.8138 7.79729C6.62424 7.72122 6.5 7.53751 6.5 7.33325V1.33325ZM7.5 1.83325V6.08717L8.63868 4.89674C8.73301 4.79813 8.86354 4.74235 9 4.74235C9.13646 4.74235 9.26699 4.79813 9.36132 4.89674L10.5 6.08717V1.83325H7.5Z" fill="#828282"/>
<path fill-rule="evenodd" clip-rule="evenodd" d="M2.83337 1.33325C2.83337 1.05711 3.05723 0.833252 3.33337 0.833252H12.6667C12.9429 0.833252 13.1667 1.05711 13.1667 1.33325C13.1667 1.60939 12.9429 1.83325 12.6667 1.83325H3.33337C3.05723 1.83325 2.83337 1.60939 2.83337 1.33325Z" fill="#828282"/>
</svg>
