<svg width="16" height="16" viewBox="0 0 16 16" fill="none" xmlns="http://www.w3.org/2000/svg">
<path fill-rule="evenodd" clip-rule="evenodd" d="M2.67082 2.51196C2.57877 2.51196 2.50415 2.58658 2.50415 2.67863V11.3349C2.50415 11.6111 2.728 11.8349 3.00415 11.8349H3.67043C3.94658 11.8349 4.17043 12.0588 4.17043 12.3349V12.6671C4.17043 13.1271 4.54328 13.4999 5.0032 13.4999C5.46313 13.4999 5.836 13.127 5.836 12.6671V12.3349C5.836 12.0588 6.05986 11.8349 6.336 11.8349H9.66817C9.94431 11.8349 10.1682 12.0588 10.1682 12.3349V12.6666C10.1682 13.1268 10.5413 13.4999 11.0015 13.4999H11.0016C11.4619 13.4999 11.835 13.1268 11.835 12.6666V12.3349C11.835 12.0588 12.0588 11.8349 12.335 11.8349H13C13.2762 11.8349 13.5 11.611 13.5 11.3349V2.67863C13.5 2.58659 13.4254 2.51196 13.3334 2.51196H2.67082ZM1.50415 2.67863C1.50415 2.0343 2.02648 1.51196 2.67082 1.51196H13.3334C13.9777 1.51196 14.5 2.03429 14.5 2.67863V11.3349C14.5 12.1634 13.8284 12.8349 13 12.8349H12.8273C12.7424 13.7685 11.9574 14.4999 11.0016 14.4999H11.0015C10.0457 14.4999 9.26078 13.7685 9.17579 12.8349H6.82842C6.74368 13.7685 5.95884 14.4999 5.0032 14.4999C4.04755 14.4999 3.26275 13.7685 3.17801 12.8349H3.00415C2.17573 12.8349 1.50415 12.1633 1.50415 11.3349V2.67863Z" fill="#828282"/>
<path fill-rule="evenodd" clip-rule="evenodd" d="M1.5 7.66675C1.5 7.39061 1.72386 7.16675 2 7.16675H14C14.2761 7.16675 14.5 7.39061 14.5 7.66675C14.5 7.94289 14.2761 8.16675 14 8.16675H2C1.72386 8.16675 1.5 7.94289 1.5 7.66675Z" fill="#828282"/>
<path fill-rule="evenodd" clip-rule="evenodd" d="M4.16663 4.33325C4.16663 4.05711 4.39048 3.83325 4.66663 3.83325H11.3333C11.6094 3.83325 11.8333 4.05711 11.8333 4.33325V7.66659C11.8333 7.94273 11.6094 8.16659 11.3333 8.16659H4.66663C4.39048 8.16659 4.16663 7.94273 4.16663 7.66659V4.33325ZM5.16663 4.83325V7.16659H10.8333V4.83325H5.16663Z" fill="#828282"/>
<path fill-rule="evenodd" clip-rule="evenodd" d="M4.16663 10C4.16663 9.72386 4.39048 9.5 4.66663 9.5H5.33329C5.60944 9.5 5.83329 9.72386 5.83329 10C5.83329 10.2761 5.60944 10.5 5.33329 10.5H4.66663C4.39048 10.5 4.16663 10.2761 4.16663 10Z" fill="#828282"/>
<path fill-rule="evenodd" clip-rule="evenodd" d="M10.1666 10C10.1666 9.72386 10.3905 9.5 10.6666 9.5H11.3333C11.6094 9.5 11.8333 9.72386 11.8333 10C11.8333 10.2761 11.6094 10.5 11.3333 10.5H10.6666C10.3905 10.5 10.1666 10.2761 10.1666 10Z" fill="#828282"/>
</svg>
