<svg width="13" height="12" viewBox="0 0 13 12" fill="none" xmlns="http://www.w3.org/2000/svg">
<path d="M7.83984 3.28369H12.3321V5.99909H7.83984V3.28369Z" fill="#21A365"/>
<path d="M7.83984 6H12.3321V8.7154H7.83984V6Z" fill="#107C41"/>
<path d="M3.35547 3.28369H7.83862V5.99909H3.35547V3.28369Z" fill="#107C41"/>
<path d="M7.83878 8.7154V6H3.36475V8.7154V9.10722V10.8932C3.36475 11.1848 3.60166 11.4217 3.89325 11.4217H11.7934C12.085 11.4217 12.3219 11.1848 12.3219 10.8932V8.7154H7.83878Z" fill="#185B37"/>
<path d="M11.7943 0.577881H7.83057V3.29328H12.3319V1.10638C12.3228 0.814795 12.0859 0.577881 11.7943 0.577881Z" fill="#33C481"/>
<path d="M7.84334 0.577881H3.90692C3.61533 0.577881 3.37842 0.814795 3.37842 1.10638V3.28417H7.85245V0.577881H7.84334Z" fill="#21A365"/>
<path d="M6.08836 8.96168H1.25895C0.940032 8.96168 0.675781 8.69743 0.675781 8.3785V3.62199C0.675781 3.30307 0.940032 3.03882 1.25895 3.03882H6.08836C6.40729 3.03882 6.67154 3.30307 6.67154 3.62199V8.3785C6.67154 8.69743 6.4164 8.96168 6.08836 8.96168Z" fill="#17864C"/>
<path d="M4.36192 7.67602L4.00654 7.02907C3.86075 6.77393 3.76963 6.6008 3.6694 6.40944H3.66029C3.57828 6.6008 3.49627 6.77393 3.35959 7.02907L3.04066 7.67602H2.34814L3.33225 6.02674L2.37548 4.40479H3.07711L3.43248 5.07908C3.54183 5.27955 3.62384 5.44356 3.70585 5.62581H3.72407C3.81519 5.42534 3.87898 5.27955 3.98832 5.07908L4.34369 4.40479H5.03621L4.06122 5.9994L5.07266 7.67602H4.36192Z" fill="white"/>
<path opacity="0.2" d="M6.74958 3.56738V3.62206V8.37856C6.74958 8.69749 6.48533 8.96174 6.16641 8.96174H3.44189V9.48113H6.64935C6.96827 9.48113 7.23252 9.21688 7.23252 8.89795V4.14144C7.24163 3.84986 7.02294 3.60383 6.74958 3.56738Z" fill="black"/>
</svg>
