<svg width="16" height="16" viewBox="0 0 16 16" fill="none" xmlns="http://www.w3.org/2000/svg">
<path fill-rule="evenodd" clip-rule="evenodd" d="M3 2.5C2.72386 2.5 2.5 2.72386 2.5 3V13C2.5 13.2761 2.72386 13.5 3 13.5H13C13.2761 13.5 13.5 13.2761 13.5 13V3C13.5 2.72386 13.2761 2.5 13 2.5H3ZM1.5 3C1.5 2.17157 2.17157 1.5 3 1.5H13C13.8284 1.5 14.5 2.17157 14.5 3V13C14.5 13.8284 13.8284 14.5 13 14.5H3C2.17157 14.5 1.5 13.8284 1.5 13V3Z" fill="#828282"/>
<path fill-rule="evenodd" clip-rule="evenodd" d="M6.33337 4.83325C6.60952 4.83325 6.83337 5.05711 6.83337 5.33325V10.6666C6.83337 10.9427 6.60952 11.1666 6.33337 11.1666C6.05723 11.1666 5.83337 10.9427 5.83337 10.6666V5.33325C5.83337 5.05711 6.05723 4.83325 6.33337 4.83325Z" fill="#828282"/>
<path fill-rule="evenodd" clip-rule="evenodd" d="M9.66663 4.83325C9.94277 4.83325 10.1666 5.05711 10.1666 5.33325V10.6666C10.1666 10.9427 9.94277 11.1666 9.66663 11.1666C9.39048 11.1666 9.16663 10.9427 9.16663 10.6666V5.33325C9.16663 5.05711 9.39048 4.83325 9.66663 4.83325Z" fill="#828282"/>
<path fill-rule="evenodd" clip-rule="evenodd" d="M4.83337 6.33325C4.83337 6.05711 5.05723 5.83325 5.33337 5.83325H10.6667C10.9428 5.83325 11.1667 6.05711 11.1667 6.33325C11.1667 6.60939 10.9428 6.83325 10.6667 6.83325H5.33337C5.05723 6.83325 4.83337 6.60939 4.83337 6.33325Z" fill="#828282"/>
<path fill-rule="evenodd" clip-rule="evenodd" d="M4.83337 9.66675C4.83337 9.39061 5.05723 9.16675 5.33337 9.16675H10.6667C10.9428 9.16675 11.1667 9.39061 11.1667 9.66675C11.1667 9.94289 10.9428 10.1667 10.6667 10.1667H5.33337C5.05723 10.1667 4.83337 9.94289 4.83337 9.66675Z" fill="#828282"/>
</svg>
