<svg width="16" height="16" viewBox="0 0 16 16" fill="none" xmlns="http://www.w3.org/2000/svg">
<mask id="path-1-inside-1_26_4" fill="white">
<path d="M11.3333 12.6667C11.3333 14.5067 9.84 16 8 16H3.33333C1.49333 16 0 14.5067 0 12.6667V8.00003C0 6.16003 1.49333 4.66669 3.33333 4.66669H4C4.36667 4.66669 4.66667 4.96669 4.66667 5.33336C4.66667 5.70003 4.36667 6.00003 4 6.00003H3.33333C2.23333 6.00003 1.33333 6.90003 1.33333 8.00003V12.6667C1.33333 13.7667 2.23333 14.6667 3.33333 14.6667H8C9.1 14.6667 10 13.7667 10 12.6667C10 12.3 10.3 12 10.6667 12C11.0333 12 11.3333 12.3 11.3333 12.6667ZM15.42 3.92669L11.8133 0.200026C11.56 -0.0666402 11.1333 -0.0733069 10.8733 0.186693C10.6133 0.446693 10.6 0.866693 10.86 1.12669L14.2867 4.66003H8.66667C6.82667 4.66003 5.33333 6.15336 5.33333 7.99336V11.3267C5.33333 11.6934 5.63333 11.9934 6 11.9934C6.36667 11.9934 6.66667 11.6934 6.66667 11.3267V7.99336C6.66667 6.89336 7.56667 5.99336 8.66667 5.99336H14.28L10.8533 9.52669C10.6 9.79336 10.6 10.2134 10.8667 10.4667C10.9933 10.5934 11.1667 10.6534 11.3333 10.6534C11.5 10.6534 11.68 10.5867 11.8133 10.4534L15.4133 6.74003C16.1933 5.96003 16.1933 4.69336 15.42 3.92003V3.92669Z"/>
</mask>
<path d="M15.42 3.92669L0.0902612 18.7628L36.7533 56.6457V3.92669H15.42ZM11.8133 0.200026L-3.65332 14.8933L-3.58519 14.9651L-3.5164 15.0361L11.8133 0.200026ZM10.86 1.12669L26.1743 -13.7253L26.0605 -13.8427L25.9449 -13.9583L10.86 1.12669ZM14.2867 4.66003V25.9934H64.694L29.601 -10.192L14.2867 4.66003ZM14.28 5.99336L29.5943 20.8454L64.6873 -15.34H14.28V5.99336ZM10.8533 9.52669L-4.461 -5.32532L-4.53757 -5.24637L-4.61332 -5.16663L10.8533 9.52669ZM10.8667 10.4667L25.9516 -4.61825L25.7582 -4.81162L25.56 -4.99996L10.8667 10.4667ZM11.8133 10.4534L26.8983 25.5383L27.0152 25.4214L27.1302 25.3028L11.8133 10.4534ZM15.4133 6.74003L0.32839 -8.34492L0.211513 -8.22804L0.0964604 -8.10937L15.4133 6.74003ZM15.42 3.92003L30.5049 -11.1649L-5.91333 -47.5832L-5.91333 3.92003H15.42ZM-10 12.6667C-10 2.72461 -1.94207 -5.33331 8 -5.33331V37.3334C21.6221 37.3334 32.6667 26.2888 32.6667 12.6667H-10ZM8 -5.33331H3.33333V37.3334H8V-5.33331ZM3.33333 -5.33331C13.2754 -5.33331 21.3333 2.72462 21.3333 12.6667H-21.3333C-21.3333 26.2888 -10.2887 37.3334 3.33333 37.3334V-5.33331ZM21.3333 12.6667V8.00003H-21.3333V12.6667H21.3333ZM21.3333 8.00003C21.3333 17.9421 13.2754 26 3.33333 26V-16.6666C-10.2887 -16.6666 -21.3333 -5.62205 -21.3333 8.00003H21.3333ZM3.33333 26H4V-16.6666H3.33333V26ZM4 26C-7.41541 26 -16.6667 16.7488 -16.6667 5.33336H26C26 -6.81537 16.1487 -16.6666 4 -16.6666V26ZM-16.6667 5.33336C-16.6667 -6.08206 -7.4154 -15.3333 4 -15.3333V27.3334C16.1487 27.3334 26 17.4821 26 5.33336H-16.6667ZM4 -15.3333H3.33333V27.3334H4V-15.3333ZM3.33333 -15.3333C-9.54874 -15.3333 -20 -4.88205 -20 8.00003H22.6667C22.6667 18.6821 14.0154 27.3334 3.33333 27.3334V-15.3333ZM-20 8.00003V12.6667H22.6667V8.00003H-20ZM-20 12.6667C-20 25.5488 -9.54874 36 3.33333 36V-6.66664C14.0154 -6.66664 22.6667 1.98462 22.6667 12.6667H-20ZM3.33333 36H8V-6.66664H3.33333V36ZM8 36C20.8821 36 31.3333 25.5488 31.3333 12.6667H-11.3333C-11.3333 1.98462 -2.68208 -6.66664 8 -6.66664V36ZM31.3333 12.6667C31.3333 24.0821 22.0821 33.3334 10.6667 33.3334V-9.33331C-1.48207 -9.33331 -11.3333 0.517949 -11.3333 12.6667H31.3333ZM10.6667 33.3334C-0.748738 33.3334 -10 24.0821 -10 12.6667H32.6667C32.6667 0.517949 22.8154 -9.33331 10.6667 -9.33331V33.3334ZM30.7497 -10.9094L27.1431 -14.6361L-3.5164 15.0361L0.0902612 18.7628L30.7497 -10.9094ZM27.28 -14.4933C18.8153 -23.4035 4.58326 -23.6931 -4.21161 -14.8983L25.9583 15.2716C17.6834 23.5465 4.30474 23.2703 -3.65332 14.8933L27.28 -14.4933ZM-4.21161 -14.8983C-12.2397 -6.87012 -13.3683 7.06833 -4.22494 16.2116L25.9449 -13.9583C34.5683 -5.33495 33.4664 7.76351 25.9583 15.2716L-4.21161 -14.8983ZM-4.45433 15.9787L-1.02767 19.512L29.601 -10.192L26.1743 -13.7253L-4.45433 15.9787ZM14.2867 -16.6733H8.66667V25.9934H14.2867V-16.6733ZM8.66667 -16.6733C-4.95541 -16.6733 -16 -5.62871 -16 7.99336H26.6667C26.6667 17.9354 18.6087 25.9934 8.66667 25.9934V-16.6733ZM-16 7.99336V11.3267H26.6667V7.99336H-16ZM-16 11.3267C-16 23.4754 -6.14876 33.3267 6 33.3267V-9.33997C17.4154 -9.33997 26.6667 -0.088698 26.6667 11.3267H-16ZM6 33.3267C18.1488 33.3267 28 23.4754 28 11.3267H-14.6667C-14.6667 -0.088698 -5.41542 -9.33997 6 -9.33997V33.3267ZM28 11.3267V7.99336H-14.6667V11.3267H28ZM28 7.99336C28 18.6754 19.3487 27.3267 8.66667 27.3267V-15.34C-4.2154 -15.34 -14.6667 -4.88872 -14.6667 7.99336H28ZM8.66667 27.3267H14.28V-15.34H8.66667V27.3267ZM-1.03434 -8.85865L-4.461 -5.32532L26.1677 24.3787L29.5943 20.8454L-1.03434 -8.85865ZM-4.61332 -5.16663C-12.5394 3.17664 -13.0934 17.1299 -3.82665 25.9333L25.56 -4.99996C34.2934 3.29679 33.7394 16.4101 26.32 24.22L-4.61332 -5.16663ZM-4.21828 25.5516C0.433437 30.2034 6.29597 31.9867 11.3333 31.9867V-10.68C16.0374 -10.68 21.5532 -9.01663 25.9516 -4.61825L-4.21828 25.5516ZM11.3333 31.9867C16.8868 31.9867 22.5764 29.8601 26.8983 25.5383L-3.27161 -4.63158C0.783553 -8.68675 6.11317 -10.68 11.3333 -10.68V31.9867ZM27.1302 25.3028L30.7302 21.5894L0.0964604 -8.10937L-3.50354 -4.39603L27.1302 25.3028ZM30.4983 21.825C39.563 12.7602 39.6558 -2.01406 30.5049 -11.1649L0.335055 19.005C-7.26914 11.4008 -7.17638 -0.840154 0.32839 -8.34492L30.4983 21.825ZM-5.91333 3.92003V3.92669H36.7533V3.92003H-5.91333Z" fill="#FAFAFA" mask="url(#path-1-inside-1_26_4)"/>
</svg>
