<svg width="20" height="20" viewBox="0 0 20 20" fill="none" xmlns="http://www.w3.org/2000/svg">
<path fill-rule="evenodd" clip-rule="evenodd" d="M2.49996 3.95825C2.3849 3.95825 2.29163 4.05153 2.29163 4.16659V15.8333C2.29163 15.9483 2.3849 16.0416 2.49996 16.0416H17.5C17.615 16.0416 17.7083 15.9483 17.7083 15.8333V4.16659C17.7083 4.05153 17.615 3.95825 17.5 3.95825H2.49996ZM1.04163 4.16659C1.04163 3.36117 1.69454 2.70825 2.49996 2.70825H17.5C18.3054 2.70825 18.9583 3.36117 18.9583 4.16659V15.8333C18.9583 16.6387 18.3054 17.2916 17.5 17.2916H2.49996C1.69454 17.2916 1.04163 16.6387 1.04163 15.8333V4.16659Z" fill="#828282"/>
<path fill-rule="evenodd" clip-rule="evenodd" d="M4.79163 8.74992C4.79163 7.48428 5.81766 6.45825 7.08329 6.45825C8.34893 6.45825 9.37496 7.48428 9.37496 8.74992C9.37496 10.0156 8.34893 11.0416 7.08329 11.0416C5.81766 11.0416 4.79163 10.0156 4.79163 8.74992ZM7.08329 7.70825C6.50801 7.70825 6.04163 8.17464 6.04163 8.74992C6.04163 9.3252 6.50801 9.79159 7.08329 9.79159C7.65857 9.79159 8.12496 9.3252 8.12496 8.74992C8.12496 8.17464 7.65857 7.70825 7.08329 7.70825Z" fill="#828282"/>
<path fill-rule="evenodd" clip-rule="evenodd" d="M3.95837 12.9167C3.95837 11.1909 5.35749 9.79175 7.08337 9.79175C8.80926 9.79175 10.2084 11.1909 10.2084 12.9167C10.2084 13.2619 9.92855 13.5417 9.58337 13.5417C9.2382 13.5417 8.95837 13.2619 8.95837 12.9167C8.95837 11.8812 8.1189 11.0417 7.08337 11.0417C6.04784 11.0417 5.20837 11.8812 5.20837 12.9167C5.20837 13.2619 4.92855 13.5417 4.58337 13.5417C4.2382 13.5417 3.95837 13.2619 3.95837 12.9167Z" fill="#828282"/>
<path fill-rule="evenodd" clip-rule="evenodd" d="M11.0416 8.33325C11.0416 7.98807 11.3214 7.70825 11.6666 7.70825H15C15.3451 7.70825 15.625 7.98807 15.625 8.33325C15.625 8.67843 15.3451 8.95825 15 8.95825H11.6666C11.3214 8.95825 11.0416 8.67843 11.0416 8.33325Z" fill="#828282"/>
<path fill-rule="evenodd" clip-rule="evenodd" d="M11.875 11.6667C11.875 11.3216 12.1548 11.0417 12.5 11.0417H15C15.3452 11.0417 15.625 11.3216 15.625 11.6667C15.625 12.0119 15.3452 12.2917 15 12.2917H12.5C12.1548 12.2917 11.875 12.0119 11.875 11.6667Z" fill="#828282"/>
</svg>
