<svg width="20" height="20" viewBox="0 0 20 20" fill="none" xmlns="http://www.w3.org/2000/svg">
<path fill-rule="evenodd" clip-rule="evenodd" d="M3.125 7.91675C3.125 4.11978 6.20303 1.04175 10 1.04175C13.797 1.04175 16.875 4.11978 16.875 7.91675C16.875 10.8466 15.1971 13.5931 13.6105 15.55C12.8076 16.5402 12.0061 17.3548 11.4057 17.9219C11.1051 18.2058 10.8538 18.4286 10.6766 18.5814C10.588 18.6578 10.5177 18.7168 10.469 18.7571C10.4447 18.7773 10.4257 18.7929 10.4125 18.8036L10.397 18.8162L10.3926 18.8197L10.3912 18.8208L10.3908 18.8212C10.3906 18.8213 10.3904 18.8215 10 18.3334C9.60957 18.8215 9.60942 18.8213 9.60924 18.8212L9.60877 18.8208L9.60741 18.8197L9.603 18.8162L9.58752 18.8036C9.57429 18.7929 9.55531 18.7773 9.53096 18.7571C9.48226 18.7168 9.41205 18.6578 9.3234 18.5814C9.14616 18.4286 8.89491 18.2058 8.5943 17.9219C7.99385 17.3548 7.19244 16.5402 6.38953 15.55C4.80289 13.5931 3.125 10.8466 3.125 7.91675ZM10 18.3334L9.60957 18.8215C9.83783 19.0041 10.1622 19.0041 10.3904 18.8215L10 18.3334ZM10 17.513C10.149 17.3818 10.3348 17.214 10.5474 17.0131C11.1189 16.4735 11.8799 15.6995 12.6395 14.7627C14.1779 12.8654 15.625 10.4036 15.625 7.91675C15.625 4.81013 13.1066 2.29175 10 2.29175C6.89339 2.29175 4.375 4.81013 4.375 7.91675C4.375 10.4036 5.82211 12.8654 7.36047 14.7627C8.12006 15.6995 8.88115 16.4735 9.45258 17.0131C9.66521 17.214 9.85102 17.3818 10 17.513Z" fill="#828282"/>
<path fill-rule="evenodd" clip-rule="evenodd" d="M6.875 7.91675C6.875 6.19086 8.27411 4.79175 10 4.79175C11.7259 4.79175 13.125 6.19086 13.125 7.91675C13.125 9.64263 11.7259 11.0417 10 11.0417C8.27411 11.0417 6.875 9.64263 6.875 7.91675ZM10 6.04175C8.96447 6.04175 8.125 6.88122 8.125 7.91675C8.125 8.95228 8.96447 9.79175 10 9.79175C11.0355 9.79175 11.875 8.95228 11.875 7.91675C11.875 6.88122 11.0355 6.04175 10 6.04175Z" fill="#828282"/>
</svg>
