<svg width="16" height="16" viewBox="0 0 16 16" fill="none" xmlns="http://www.w3.org/2000/svg">
<path fill-rule="evenodd" clip-rule="evenodd" d="M7.5 3C7.5 2.72386 7.72386 2.5 8 2.5H14C14.2761 2.5 14.5 2.72386 14.5 3C14.5 3.27614 14.2761 3.5 14 3.5H8C7.72386 3.5 7.5 3.27614 7.5 3Z" fill="#828282"/>
<path fill-rule="evenodd" clip-rule="evenodd" d="M7.5 6.33325C7.5 6.05711 7.72386 5.83325 8 5.83325H14C14.2761 5.83325 14.5 6.05711 14.5 6.33325C14.5 6.60939 14.2761 6.83325 14 6.83325H8C7.72386 6.83325 7.5 6.60939 7.5 6.33325Z" fill="#828282"/>
<path fill-rule="evenodd" clip-rule="evenodd" d="M1.5 9.66675C1.5 9.39061 1.72386 9.16675 2 9.16675H14C14.2761 9.16675 14.5 9.39061 14.5 9.66675C14.5 9.94289 14.2761 10.1667 14 10.1667H2C1.72386 10.1667 1.5 9.94289 1.5 9.66675Z" fill="#828282"/>
<path fill-rule="evenodd" clip-rule="evenodd" d="M1.5 13C1.5 12.7239 1.72386 12.5 2 12.5H14C14.2761 12.5 14.5 12.7239 14.5 13C14.5 13.2761 14.2761 13.5 14 13.5H2C1.72386 13.5 1.5 13.2761 1.5 13Z" fill="#828282"/>
<path fill-rule="evenodd" clip-rule="evenodd" d="M1.5 3C1.5 2.72386 1.72386 2.5 2 2.5H5.33333C5.60948 2.5 5.83333 2.72386 5.83333 3V6.33333C5.83333 6.60948 5.60948 6.83333 5.33333 6.83333H2C1.72386 6.83333 1.5 6.60948 1.5 6.33333V3ZM2.5 3.5V5.83333H4.83333V3.5H2.5Z" fill="#828282"/>
</svg>
