<svg width="236" height="72" viewBox="0 0 236 72" fill="none" xmlns="http://www.w3.org/2000/svg">
<path d="M96.304 59.5555L98.5388 64.3466C98.75 64.7869 98.9303 65.0776 99.0711 65.2141C99.2119 65.3506 99.4274 65.4431 99.7222 65.4915C100.29 65.5796 100.571 65.8658 100.571 66.3546C100.571 66.9315 100.224 67.3454 99.533 67.5964C98.838 67.8474 97.7074 67.9751 96.1325 67.9751C94.3508 67.9751 93.0311 67.9003 92.1732 67.7505C91.7773 67.6801 91.465 67.5348 91.2362 67.319C91.003 67.1032 90.8887 66.839 90.8887 66.5307C90.8887 66.293 90.9503 66.1124 91.0734 65.9803C91.1966 65.8482 91.421 65.7293 91.7509 65.6192C92.1204 65.4915 92.3052 65.2801 92.3052 64.9807C92.3052 64.4523 91.9841 64.1396 91.3462 64.0471C90.6599 63.9547 89.6965 63.9062 88.4515 63.9062C87.4045 63.9062 86.7798 63.9679 86.5731 64.0956C86.4455 64.1748 86.3355 64.3158 86.2431 64.5227C86.1508 64.7297 86.1024 64.9234 86.1024 65.1128C86.1024 65.2845 86.1376 65.399 86.2036 65.4519C86.2695 65.5047 86.4895 65.5884 86.859 65.7073C87.3385 65.8482 87.5805 66.1344 87.5805 66.5572C87.5805 67.4951 86.4587 67.9663 84.2151 67.9663C82.9394 67.9663 82.0024 67.8782 81.4041 67.7065C80.8542 67.5392 80.577 67.1781 80.577 66.6188C80.577 66.3766 80.6386 66.1873 80.7618 66.0508C80.885 65.9186 81.1005 65.7953 81.4173 65.6853C81.9276 65.5047 82.3191 65.2493 82.583 64.9234C82.847 64.5976 83.2209 63.8974 83.7092 62.8229L85.3765 59.168C85.9924 57.8293 86.4015 56.8253 86.6127 56.1603C86.8194 55.4954 86.9294 54.8437 86.9382 54.2052C86.947 53.527 86.9866 53.0558 87.0614 52.7916C87.1362 52.5274 87.3033 52.2676 87.5629 52.0166C88.1084 51.4661 88.7991 51.1887 89.6437 51.1887C90.44 51.1887 91.201 51.5014 91.9225 52.1223C92.9299 52.9722 94.3948 55.4514 96.3172 59.5599L96.304 59.5555ZM88.082 61.0483H90.396C90.8227 61.0483 91.0338 60.9558 91.0338 60.7665C91.0338 60.5067 90.7391 59.8681 90.1496 58.8509C89.8813 58.3841 89.6789 58.0759 89.5337 57.9174C89.3886 57.7588 89.2434 57.6796 89.085 57.6796C88.8035 57.6796 88.5659 57.9438 88.3767 58.4722C88.346 58.5427 88.2316 58.8245 88.0336 59.3133C87.7037 60.1192 87.5365 60.5991 87.5365 60.7577C87.5365 60.9558 87.7169 61.0527 88.082 61.0527V61.0483Z" fill="#21479A"/>
<path d="M114.173 58.2697L118.687 63.9327C118.955 64.263 119.162 64.4875 119.311 64.6064C119.461 64.7253 119.672 64.8266 119.949 64.9147C120.38 65.0556 120.688 65.2185 120.864 65.3991C121.04 65.5796 121.133 65.8218 121.133 66.1213C121.133 66.4031 121.036 66.6717 120.838 66.9183C120.64 67.1649 120.389 67.3499 120.081 67.4687C119.61 67.6493 119.017 67.777 118.308 67.8519C117.6 67.9267 116.615 67.962 115.356 67.962C114.01 67.962 113.003 67.8871 112.33 67.7374C111.934 67.6449 111.626 67.4908 111.397 67.275C111.168 67.0636 111.054 66.8214 111.054 66.5528C111.054 66.2137 111.212 65.9363 111.525 65.7249C111.841 65.5224 111.995 65.3462 111.995 65.2053C111.995 64.8134 111.538 64.012 110.623 62.8054C110.504 62.6557 110.403 62.5808 110.315 62.5808C110.236 62.5808 110.143 62.6424 110.042 62.7701C109.664 63.2281 109.33 63.6861 109.044 64.1441C108.758 64.602 108.612 64.8971 108.612 65.0292C108.612 65.1569 108.775 65.3462 109.096 65.5972C109.413 65.835 109.567 66.1345 109.567 66.4956C109.567 67.0416 109.259 67.4071 108.648 67.5965C107.843 67.8475 106.888 67.9752 105.775 67.9752C104.517 67.9752 103.545 67.8695 102.867 67.6581C102.59 67.57 102.361 67.4115 102.172 67.1737C101.983 66.9359 101.891 66.6893 101.891 66.4295C101.891 66.0816 102.005 65.8086 102.238 65.6149C102.471 65.4167 102.801 65.311 103.237 65.2978C103.756 65.2802 104.196 65.1261 104.561 64.831C104.922 64.536 105.555 63.8182 106.452 62.6821L108.283 60.3878C108.384 60.2601 108.437 60.1632 108.437 60.0928C108.437 60.0443 108.384 59.9607 108.283 59.833L105.256 55.9666C104.785 55.3501 104.473 54.9758 104.323 54.8437C104.174 54.7116 103.932 54.5927 103.602 54.487C103.131 54.3373 102.823 54.2008 102.682 54.0731C102.414 53.8309 102.282 53.5359 102.282 53.1968C102.282 52.4878 102.841 52.0078 103.958 51.7524C105.142 51.4838 106.474 51.3517 107.961 51.3517C109.528 51.3517 110.592 51.453 111.151 51.66C111.393 51.748 111.591 51.8977 111.74 52.1091C111.89 52.3205 111.965 52.5539 111.965 52.8049C111.965 53.2012 111.819 53.5006 111.529 53.7032C111.349 53.8309 111.239 53.9102 111.204 53.9498C111.168 53.9894 111.151 54.0511 111.151 54.1392C111.151 54.3197 111.296 54.6015 111.586 54.9802C111.877 55.359 112.092 55.5483 112.237 55.5483C112.365 55.5483 112.594 55.3457 112.924 54.945C113.254 54.5443 113.421 54.2625 113.421 54.1039C113.421 54.0115 113.399 53.9366 113.355 53.8926C113.311 53.8441 113.161 53.7252 112.902 53.5271C112.664 53.3553 112.545 53.0955 112.545 52.7476C112.545 52.25 112.853 51.8933 113.465 51.6732C114.076 51.453 115.079 51.3429 116.465 51.3429C117.481 51.3429 118.264 51.4266 118.814 51.5895C119.509 51.7965 119.852 52.206 119.852 52.8181C119.852 53.2276 119.676 53.5359 119.32 53.7384C119.179 53.8177 118.81 53.8749 118.211 53.9146C117.816 53.9454 117.415 54.1215 117.002 54.4342C116.588 54.7513 116.104 55.2577 115.554 55.9578L114.16 57.706C114.059 57.8382 114.006 57.9394 114.006 58.0011C114.006 58.0495 114.059 58.1332 114.16 58.2609L114.173 58.2697Z" fill="#21479A"/>
<path d="M140.889 51.2548C142.037 51.2548 143.15 51.5058 144.219 52.0122C144.725 52.25 145.072 52.3689 145.27 52.3689C145.411 52.3689 145.64 52.3336 145.956 52.2632C146.058 52.2412 146.172 52.228 146.3 52.228C146.709 52.228 147.069 52.4173 147.373 52.796C148.13 53.712 148.508 54.8481 148.508 56.2C148.508 57.1555 148.182 57.8513 147.527 58.2917C147.171 58.5295 146.775 58.6484 146.335 58.6484C145.934 58.6484 145.605 58.5603 145.354 58.3885C145.103 58.2168 144.857 57.9086 144.619 57.4682C144.28 56.8473 144.003 56.3981 143.792 56.1251C143.581 55.8521 143.321 55.6055 143.013 55.3853C142.248 54.8481 141.452 54.5795 140.616 54.5795C139.78 54.5795 139.16 54.8745 138.685 55.4602C138.21 56.0458 137.972 56.8341 137.972 57.8205C137.972 59.1768 138.315 60.4186 139.001 61.5459C139.93 63.0519 141.263 63.8049 142.996 63.8049C143.634 63.8049 144.267 63.6992 144.892 63.4835C145.517 63.2721 146.005 62.9947 146.352 62.6556C146.652 62.3738 146.898 62.2285 147.087 62.2285C147.364 62.2285 147.597 62.3562 147.795 62.6116C147.993 62.867 148.09 63.1796 148.09 63.5407C148.09 63.9987 147.954 64.5095 147.677 65.0776C147.399 65.6456 147.069 66.0904 146.682 66.4118C146.515 66.5439 146.176 66.6628 145.653 66.7685C145.354 66.8258 144.958 66.9711 144.461 67.2045C143.295 67.7637 142.081 68.0456 140.823 68.0456C139.564 68.0456 138.196 67.7505 136.89 67.1604C135.368 66.4735 134.167 65.421 133.287 64.0031C132.42 62.6248 131.989 61.1804 131.989 59.6744C131.989 57.9262 132.535 56.3277 133.621 54.8833C134.567 53.6283 135.799 52.6727 137.321 52.0078C138.478 51.5014 139.67 51.2504 140.902 51.2504L140.889 51.2548Z" fill="#21479A"/>
<path d="M157.354 55.9402C158.727 55.9402 159.888 56.2881 160.838 56.9794C161.344 57.3493 161.696 57.7721 161.894 58.2521C162.097 58.7276 162.193 59.3838 162.193 60.2205L162.171 61.9819C162.171 63.2061 162.259 63.9943 162.431 64.3598C162.519 64.5315 162.603 64.6416 162.677 64.6901C162.752 64.7385 162.919 64.7825 163.174 64.8222C163.43 64.8618 163.553 65.0291 163.553 65.3198C163.553 65.6985 163.403 66.0904 163.1 66.5043C162.796 66.9183 162.405 67.2573 161.925 67.5348C161.336 67.8827 160.715 68.0544 160.069 68.0544C159.242 68.0544 158.586 67.7726 158.107 67.2045C157.939 67.0019 157.785 66.8963 157.645 66.8963C157.486 66.8963 157.28 66.9931 157.02 67.1913C156.233 67.7682 155.34 68.0544 154.337 68.0544C153.334 68.0544 152.471 67.8342 151.833 67.3939C151.415 67.1032 151.086 66.7201 150.839 66.2533C150.597 65.7822 150.474 65.2934 150.474 64.7825C150.474 63.9635 150.804 63.2369 151.468 62.6072C152.502 61.612 154.046 61.1144 156.101 61.1056C156.558 61.1056 156.844 61.0615 156.963 60.9691C157.082 60.8766 157.139 60.6696 157.139 60.3349C157.139 59.4983 157.051 58.895 156.879 58.5207C156.708 58.1464 156.422 57.957 156.03 57.957C155.793 57.957 155.581 58.0275 155.397 58.1684C155.212 58.3093 154.983 58.5691 154.706 58.9478C154.007 59.9474 153.272 60.4494 152.506 60.4494C152.119 60.4494 151.807 60.3349 151.561 60.106C151.319 59.877 151.196 59.5775 151.196 59.2076C151.196 58.8377 151.345 58.4502 151.649 58.0715C151.952 57.6928 152.361 57.3625 152.885 57.0763C154.31 56.3189 155.797 55.9402 157.35 55.9402H157.354ZM156.563 62.7877C156.215 62.7877 155.916 62.9286 155.661 63.2149C155.406 63.5011 155.278 63.8358 155.278 64.2321C155.278 64.6284 155.37 64.9147 155.551 65.148C155.731 65.3814 155.973 65.4959 156.272 65.4959C156.901 65.4959 157.218 64.9631 157.218 63.9018C157.218 63.4703 157.174 63.1752 157.082 63.0255C156.989 62.8758 156.822 62.7965 156.567 62.7877H156.563Z" fill="#21479A"/>
<path d="M171.383 56.0326C171.832 56.0326 172.056 56.354 172.056 56.9926V57.1951C172.047 57.3228 172.043 57.4241 172.043 57.5034C172.043 57.9305 172.17 58.1419 172.421 58.1419C172.553 58.1419 172.764 57.9746 173.046 57.6355C173.473 57.1467 174.005 56.7592 174.652 56.4685C175.298 56.1779 175.958 56.037 176.636 56.037C177.951 56.037 178.866 56.517 179.376 57.4814C179.574 57.8381 179.733 58.0142 179.86 58.0142C179.948 58.0142 180.151 57.8557 180.476 57.543C181.501 56.5434 182.662 56.0414 183.96 56.0414C184.976 56.0414 185.808 56.3232 186.455 56.8825C187.132 57.4682 187.471 58.3401 187.471 59.507C187.471 59.758 187.462 60.1852 187.449 60.784C187.431 60.991 187.427 61.6075 187.427 62.6423C187.427 63.3029 187.427 63.7697 187.414 64.0383C187.405 64.2056 187.4 64.3201 187.4 64.395C187.4 64.9014 187.559 65.3417 187.871 65.7204C188.06 65.9494 188.175 66.0991 188.219 66.174C188.263 66.2489 188.285 66.3501 188.285 66.4734C188.285 67.4819 187.101 67.9883 184.73 67.9883C183.683 67.9883 182.838 67.8606 182.196 67.6096C181.554 67.3586 181.233 67.0283 181.233 66.6144C181.233 66.4558 181.255 66.3369 181.299 66.2533C181.343 66.1696 181.492 65.9494 181.752 65.5971C181.994 65.2757 182.117 64.1968 182.117 62.3693C182.117 61.3037 182.042 60.5639 181.893 60.1455C181.721 59.6479 181.374 59.4013 180.854 59.4013C180.595 59.4013 180.362 59.4806 180.164 59.6435C179.961 59.8064 179.829 60.009 179.768 60.2512C179.697 60.533 179.658 61.2904 179.649 62.5234C179.671 63.8489 179.715 64.6504 179.772 64.9366C179.829 65.2184 180.032 65.6147 180.371 66.1212C180.45 66.24 180.489 66.3898 180.489 66.5703C180.489 67.5083 179.266 67.9795 176.816 67.9795C175.342 67.9795 174.352 67.8694 173.838 67.6492C173.429 67.4775 173.222 67.1692 173.222 66.7288C173.222 66.5307 173.248 66.3942 173.297 66.3149C173.349 66.2356 173.521 66.0551 173.825 65.7689C173.996 65.6015 174.111 65.4474 174.163 65.3021C174.216 65.1568 174.251 64.8882 174.273 64.505C174.326 63.6375 174.357 62.7612 174.357 61.8805C174.357 60.3349 173.965 59.5642 173.173 59.5642C172.584 59.5642 172.232 59.8945 172.122 60.5595C172.03 61.1804 171.981 62.0743 171.981 63.2324C171.981 64.0999 171.999 64.668 172.034 64.9366C172.069 65.2052 172.166 65.4826 172.324 65.7777C172.514 66.1168 172.606 66.3942 172.606 66.6055C172.606 67.1164 172.25 67.4731 171.533 67.6712C170.754 67.8826 169.896 67.9927 168.959 67.9927C167.745 67.9927 166.856 67.8958 166.289 67.702C165.721 67.5083 165.44 67.2044 165.44 66.7861C165.44 66.6276 165.475 66.4955 165.55 66.3854C165.625 66.2753 165.796 66.1035 166.064 65.8657C166.416 65.5443 166.623 65.0951 166.68 64.5271C166.768 63.5495 166.808 62.5367 166.808 61.4886C166.808 60.74 166.773 60.216 166.698 59.9209C166.623 59.6259 166.465 59.3881 166.218 59.2076C165.981 59.027 165.831 58.8905 165.765 58.7936C165.699 58.6967 165.664 58.569 165.664 58.4017C165.664 57.8733 166.078 57.4549 166.905 57.1467C168.897 56.4289 170.389 56.0678 171.383 56.059V56.0326Z" fill="#21479A"/>
<path d="M196.106 56.0106C196.585 56.0106 196.885 56.0503 197.003 56.1339C197.122 56.2176 197.179 56.4246 197.179 56.7548C197.179 57.0455 197.272 57.1908 197.461 57.1908C197.54 57.1908 197.804 57.0411 198.253 56.7416C198.591 56.5127 199.023 56.3233 199.546 56.1692C200.07 56.015 200.545 55.9402 200.971 55.9402C201.97 55.9402 202.867 56.2881 203.655 56.9794C204.253 57.5079 204.719 58.1728 205.049 58.9786C205.397 59.8241 205.568 60.7092 205.568 61.6384C205.568 63.6244 204.9 65.2625 203.558 66.5484C202.529 67.548 201.354 68.05 200.039 68.05C199.37 68.05 198.679 67.8915 197.971 67.5788C197.83 67.5172 197.716 67.4863 197.628 67.4863C197.39 67.4863 197.272 67.7241 197.272 68.1953C197.272 68.8162 197.478 69.2654 197.896 69.5428C198.283 69.8026 198.512 69.9788 198.587 70.0712C198.662 70.1637 198.697 70.3134 198.697 70.5248C198.697 70.996 198.433 71.3615 197.905 71.6169C197.377 71.8723 196.634 72 195.67 72C193.963 72 192.463 71.6565 191.179 70.9696C190.523 70.6217 190.198 70.1945 190.198 69.6793C190.198 69.4415 190.246 69.2654 190.343 69.1421C190.44 69.0188 190.633 68.8911 190.915 68.759C191.324 68.5696 191.575 68.2261 191.667 67.7285C191.76 67.2309 191.825 65.8042 191.874 63.4483C191.821 61.5107 191.746 60.4186 191.663 60.1852C191.632 60.106 191.588 60.0531 191.526 60.0311C191.469 60.0091 191.271 59.965 190.941 59.9034C190.691 59.855 190.484 59.7405 190.325 59.5555C190.167 59.3706 190.088 59.146 190.088 58.8862C190.088 58.5691 190.198 58.2917 190.418 58.0539C190.638 57.8161 190.998 57.5783 191.491 57.3493C193.422 56.473 194.953 56.0283 196.088 56.0106H196.106ZM197.276 60.4803L197.1 63.7345C197.091 63.8666 197.087 63.9987 197.087 64.1264C197.087 64.373 197.192 64.5668 197.408 64.7165C197.619 64.8662 197.905 64.9411 198.257 64.9411C199.344 64.9411 199.889 64.0471 199.889 62.2549C199.889 61.0968 199.66 60.2821 199.203 59.8065C198.921 59.5159 198.583 59.3706 198.187 59.3706C197.628 59.3706 197.324 59.7405 197.276 60.4803Z" fill="#21479A"/>
<path d="M214.226 56.6227V63.0343C214.226 64.4082 214.679 65.0908 215.585 65.0908C215.814 65.0908 216.038 65.0247 216.258 64.897C216.478 64.7649 216.632 64.6064 216.72 64.417C216.892 64.0383 216.98 63.1928 216.98 61.885C216.98 60.5771 216.936 59.7096 216.852 59.234C216.821 59.0359 216.764 58.8949 216.685 58.8025C216.606 58.71 216.456 58.6087 216.236 58.4898C215.787 58.252 215.563 57.9526 215.563 57.5915C215.563 57.1027 215.95 56.7636 216.72 56.5743C218.185 56.2132 219.632 56.0282 221.058 56.0282C221.854 56.0282 222.25 56.451 222.25 57.2921C222.25 57.3801 222.25 57.5563 222.237 57.8249C222.219 58.2036 222.21 58.666 222.201 59.2076V64.4214C222.201 64.69 222.43 64.9322 222.888 65.1568C223.275 65.3462 223.468 65.6236 223.468 65.9847C223.468 66.6937 222.628 67.2441 220.952 67.6272C219.967 67.8562 219.016 67.9707 218.093 67.9707C217.714 67.9707 217.455 67.9267 217.318 67.843C217.182 67.7549 217.098 67.5876 217.076 67.3322C217.037 66.8434 216.887 66.5968 216.628 66.5968C216.535 66.5968 216.447 66.6188 216.368 66.6628C216.289 66.7069 216.051 66.8654 215.647 67.1428C214.85 67.6889 213.997 67.9575 213.082 67.9575C211.569 67.9575 210.504 67.5215 209.879 66.6452C209.351 65.9098 209.087 64.6768 209.087 62.9418C209.087 62.2945 209.087 61.7441 209.101 61.2861V60.74C209.101 60.0619 209.039 59.5643 208.916 59.2428C208.793 58.9258 208.573 58.6748 208.247 58.4898C207.939 58.3313 207.746 58.208 207.662 58.1111C207.579 58.0186 207.539 57.8865 207.539 57.7192C207.539 57.1203 207.992 56.724 208.898 56.5258C210.442 56.1868 211.987 56.015 213.531 56.015C213.997 56.015 214.226 56.2132 214.226 56.6051V56.6227Z" fill="#21479A"/>
<path d="M230.208 55.949C230.603 55.949 231.241 56.0371 232.134 56.2088C232.315 56.2396 232.464 56.2572 232.583 56.2572C232.715 56.2572 232.979 56.1868 233.362 56.0459C233.542 55.9754 233.696 55.9402 233.824 55.9402C234.184 55.9402 234.554 56.1736 234.923 56.6359C235.223 57.0058 235.465 57.411 235.654 57.8557C235.843 58.2961 235.935 58.6792 235.935 59.0051C235.935 59.3309 235.825 59.5819 235.605 59.7933C235.385 60.0003 235.108 60.106 234.778 60.106C234.501 60.106 234.255 60.0399 234.039 59.9034C233.824 59.7713 233.472 59.4718 232.992 59.0183C232.486 58.5295 232.073 58.2829 231.738 58.2829C231.518 58.2829 231.325 58.3621 231.167 58.5251C231.008 58.688 230.925 58.8774 230.925 59.0975C230.925 59.4851 231.294 59.8461 232.038 60.1852C233.371 60.7841 234.387 61.4402 235.099 62.1492C235.698 62.7481 235.997 63.4835 235.997 64.351C235.997 65.4475 235.517 66.3634 234.554 67.0944C233.727 67.7329 232.715 68.05 231.518 68.05C231.211 68.05 230.652 67.9971 229.842 67.8959C229.077 67.8078 228.65 67.7638 228.553 67.7638C228.452 67.7638 228.333 67.777 228.197 67.799C227.968 67.8298 227.801 67.8474 227.7 67.8474C227.33 67.8474 227.04 67.7549 226.825 67.5656C226.503 67.275 226.204 66.8126 225.927 66.1873C225.65 65.562 225.514 65.0203 225.514 64.5712C225.514 63.8446 225.795 63.4835 226.363 63.4835C226.583 63.4835 226.785 63.5584 226.97 63.7037C227.154 63.849 227.542 64.2365 228.131 64.8706C228.452 65.2185 228.721 65.4563 228.936 65.584C229.147 65.7117 229.376 65.7777 229.622 65.7777C229.882 65.7777 230.089 65.7073 230.247 65.5708C230.405 65.4343 230.485 65.2493 230.485 65.0203C230.485 64.6636 230.181 64.3422 229.574 64.0515C228.307 63.4306 227.392 62.7877 226.829 62.1228C226.266 61.4623 225.984 60.696 225.984 59.8285C225.984 58.8906 226.27 58.0803 226.847 57.4022C227.665 56.4334 228.782 55.949 230.203 55.949H230.208Z" fill="#21479A"/>
<path d="M51.7894 55.071H49.6163C45.7407 57.8717 40.9809 59.5186 35.8471 59.5186C22.8259 59.5186 12.2329 48.9192 12.2329 35.8847C12.2329 22.8501 22.8259 12.2463 35.8471 12.2463C39.6831 12.2463 43.308 13.1667 46.5149 14.796C46.6557 14.8752 46.7965 14.9501 46.9416 15.0206C46.9636 15.0338 46.9856 15.0426 47.012 15.0558C47.034 15.069 47.056 15.0822 47.0824 15.0954V15.0866C48.4241 15.7383 49.7878 16.0774 51.0328 16.0906C51.6706 16.0994 52.2733 16.0202 52.8276 15.8572C53.6634 15.6106 54.3849 15.1659 54.9304 14.5186C57.0243 12.0305 55.7266 7.49046 52.0358 4.37714C51.1824 3.65496 50.2717 3.07369 49.3523 2.63333C48.7848 2.36471 48.2086 2.14894 47.6455 1.99041C47.4607 1.92436 47.2716 1.86271 47.0824 1.80106C43.5499 0.62971 39.7711 0 35.8471 0C16.0513 0 0.00341797 16.0686 0.00341797 35.8847C0.00341797 55.7007 16.0513 71.7649 35.8471 71.7649C48.5913 71.7649 59.787 65.1067 66.1392 55.071H51.7894Z" fill="#21479A"/>
<path d="M71.4891 32.0402C71.3307 31.983 71.1591 31.9522 70.9788 31.9522C70.1429 31.9522 69.4611 32.6303 69.4611 33.467C69.4611 34.1055 69.8526 34.6471 70.4069 34.8761C69.2015 37.2496 65.361 41.16 62.1057 40.4863C61.9737 40.4598 61.8461 40.4246 61.7141 40.385C61.3006 40.2529 60.8915 40.0415 60.4868 39.7421C60.0865 39.4558 59.6949 39.0771 59.3034 38.6059C58.01 37.0427 56.7607 34.4226 55.5729 30.3316C56.6023 30.2348 57.4074 29.3673 57.4074 28.3148C57.4074 27.1963 56.5011 26.2936 55.3881 26.2936C54.2752 26.2936 53.3645 27.1963 53.3645 28.3148C53.3645 29.3673 54.1696 30.2348 55.199 30.3316C53.171 37.3201 50.967 40.0107 48.6662 40.4863C48.1471 40.592 47.6192 40.5831 47.0825 40.4819C44.9225 40.0811 42.7361 38.1832 41.3724 36.4218C40.9501 35.8801 40.6069 35.3473 40.365 34.8761C40.9193 34.6471 41.3108 34.1055 41.3108 33.467C41.3108 32.6303 40.6289 31.9522 39.7931 31.9522C38.9573 31.9522 38.2754 32.6303 38.2754 33.467C38.2754 34.3037 38.9573 34.9862 39.7931 34.9862C39.8899 34.9862 39.9867 34.9774 40.079 34.9598C40.5498 36.73 40.9589 38.2228 41.3724 39.72C42.0367 42.1332 42.7141 44.5772 43.6688 48.263H67.1075C67.7498 45.7749 68.2645 43.8506 68.7396 42.12C69.4039 39.698 69.9802 37.6548 70.6928 34.9598C70.7852 34.9774 70.882 34.9862 70.9788 34.9862C71.2295 34.9862 71.4671 34.9246 71.6739 34.8145C72.1622 34.5635 72.4965 34.0571 72.4965 33.467C72.4965 32.8109 72.0742 32.2516 71.4891 32.0402Z" fill="#21479A"/>
<path d="M43.6687 49.8835V53.1862C43.6687 53.8512 44.2054 54.3884 44.8653 54.3884H65.9065C66.2584 54.3884 66.5795 54.2343 66.8039 53.9877C66.8039 53.9877 66.8054 53.9847 66.8083 53.9789C66.9139 53.86 66.9975 53.7191 67.0459 53.5649C67.0503 53.5561 67.0503 53.5517 67.0547 53.5473C67.0898 53.4328 67.1074 53.3095 67.1074 53.1862V49.8835H43.6687Z" fill="#21479A"/>
</svg>
